<svg width="50" height="50" viewBox="0 0 50 50" fill="none" xmlns="http://www.w3.org/2000/svg">
<path d="M25 50C38.8071 50 50 38.8071 50 25C50 11.1929 38.8071 0 25 0C11.1929 0 0 11.1929 0 25C0 38.8071 11.1929 50 25 50Z" fill="#4D4D4D"/>
<path fill-rule="evenodd" clip-rule="evenodd" d="M17.1663 21.782L24.997 13.9514L32.8276 21.7901L37.3841 17.2337L24.997 4.8385L12.6099 17.2256L17.1663 21.782ZM4.83569 24.9998L9.39214 20.4433L13.9486 24.9998L9.39214 29.5562L4.83569 24.9998ZM17.1663 28.2175L24.997 36.0482L32.8276 28.2095L37.3921 32.7659L24.997 45.1611L12.6099 32.774L12.6018 32.7659L17.1663 28.2175ZM36.0454 24.9998L40.6018 20.4433L45.1583 24.9998L40.6018 29.5562L36.0454 24.9998Z" fill="#F3BA2F"/>
<path fill-rule="evenodd" clip-rule="evenodd" d="M30.0788 25.0001L24.9981 19.9033L21.2401 23.6694L20.8046 24.1049L19.9094 25.0001L19.9014 25.0082L19.9094 25.0162L24.9901 30.0969L30.0788 25.0082V25.0001Z" fill="#F3BA2F"/>
</svg>
