<svg width="95" height="28" viewBox="0 0 95 28" fill="none" xmlns="http://www.w3.org/2000/svg">
<path d="M0 0.79364H9.60769C10.7489 0.79364 11.814 0.945798 12.8139 1.26098C13.8138 1.57617 14.7267 2.0109 15.5527 2.57606C16.3787 3.14122 17.1178 3.81506 17.759 4.60846C18.4003 5.40186 18.9437 6.27133 19.3893 7.22775C19.8349 8.18417 20.1718 9.20581 20.4109 10.3035C20.65 11.4012 20.7587 12.5315 20.7587 13.7162C20.7587 15.5638 20.487 17.2702 19.9436 18.857C19.4002 20.4329 18.6394 21.8132 17.6503 22.9761C16.6613 24.1499 15.4875 25.0629 14.1181 25.7258C12.7487 26.3888 11.238 26.7149 9.59682 26.7149H0V0.79364ZM2.74971 24.1934H8.50998C9.86854 24.1934 11.1401 23.9543 12.3031 23.4869C13.466 23.0196 14.4768 22.3349 15.3245 21.4437C16.1722 20.5525 16.8352 19.4547 17.3134 18.1614C17.7916 16.8681 18.0307 15.4008 18.0307 13.7488C18.0307 11.9555 17.7916 10.4013 17.3025 9.07539C16.8243 7.76031 16.1505 6.67346 15.2919 5.81486C14.4333 4.95625 13.4334 4.32588 12.2705 3.91288C11.1075 3.49988 9.85767 3.29338 8.50998 3.29338H2.74971V24.1934Z" fill="white"/>
<path d="M29.856 15.0636H43.5285V17.5742H29.856V24.1931H45.0284V26.7037H27.1063V15.0745H29.856V15.0636Z" fill="white"/>
<path d="M27.1063 12.5637V0.934509H45.0284V3.44512H29.856V10.064H43.5285V12.5746H29.856H27.1063V12.5637Z" fill="white"/>
<path d="M53.8405 0.728027V18.1827C53.8405 19.237 54.0362 20.1825 54.4274 21.0194C54.8187 21.8563 55.3295 22.5627 55.949 23.1496C56.5685 23.7365 57.275 24.1821 58.0683 24.4864C58.8509 24.8016 59.6551 24.9538 60.4594 24.9538C61.3071 24.9538 62.144 24.8125 62.9917 24.5299C63.8395 24.2473 64.6003 23.8234 65.2741 23.2692C65.948 22.7149 66.5023 22.0193 66.9261 21.1824C67.35 20.3455 67.5674 19.3783 67.5674 18.2805V0.728027H70.3171V18.074C70.3171 19.0739 70.1867 20.0086 69.9149 20.8564C69.6432 21.7041 69.2846 22.4758 68.8064 23.1713C68.339 23.8669 67.7847 24.4756 67.1544 24.9972C66.524 25.5189 65.8393 25.9645 65.1111 26.3232C64.3829 26.6818 63.6221 26.9536 62.8396 27.1274C62.0571 27.3122 61.2745 27.3992 60.492 27.3992C59.753 27.3992 59.003 27.3122 58.2422 27.1274C57.4815 26.9427 56.7641 26.6818 56.0686 26.3232C55.373 25.9754 54.7209 25.5298 54.1231 25.0081C53.5145 24.4864 52.9928 23.8778 52.5472 23.1822C52.1016 22.4866 51.7538 21.7041 51.4929 20.8455C51.2321 19.976 51.1017 19.0305 51.1017 17.998V0.728027H53.8405Z" fill="white"/>
<path d="M78.8495 18.5415C78.9147 19.4654 79.1212 20.324 79.4799 21.0956C79.8385 21.8673 80.3167 22.5411 80.9145 23.1063C81.5123 23.6714 82.2078 24.1171 83.023 24.4322C83.8381 24.7474 84.7184 24.9104 85.6857 24.9104C86.5552 24.9104 87.3812 24.8126 88.1746 24.6279C88.968 24.4322 89.6636 24.1279 90.2722 23.7149C90.8808 23.3019 91.3591 22.7585 91.7177 22.0955C92.0764 21.4325 92.2611 20.6283 92.2611 19.6936C92.2611 18.9219 92.0655 18.2698 91.6742 17.7373C91.283 17.1939 90.7722 16.7374 90.1309 16.3461C89.4897 15.9549 88.7724 15.6179 87.9572 15.3354C87.1421 15.0528 86.327 14.7811 85.501 14.542C84.8054 14.3463 84.1098 14.129 83.4142 13.8899C82.7187 13.6508 82.0448 13.3899 81.3927 13.0856C80.7406 12.7921 80.132 12.4444 79.5777 12.064C79.0125 11.6836 78.5234 11.2271 78.1104 10.7054C77.6974 10.1837 77.3714 9.59683 77.1214 8.93385C76.8714 8.26001 76.741 7.49922 76.741 6.62974C76.741 5.55377 76.9475 4.59735 77.3714 3.78221C77.7953 2.95621 78.3821 2.2715 79.1429 1.70634C79.9037 1.15205 80.8167 0.728185 81.8709 0.434737C82.9252 0.14129 84.0881 0 85.3488 0C86.4791 0 87.4682 0.108684 88.3376 0.336921C89.2071 0.565158 89.957 0.858606 90.6091 1.24987C91.2504 1.63026 91.7938 2.08674 92.2394 2.59756C92.685 3.10837 93.0545 3.65179 93.3371 4.22782C93.6197 4.79298 93.8371 5.39074 93.9675 5.98851C94.0979 6.59714 94.1957 7.17317 94.2283 7.73832H91.4025C91.3264 6.86885 91.1199 6.10806 90.783 5.45595C90.4461 4.80385 90.0005 4.24956 89.4679 3.80395C88.9245 3.35835 88.305 3.02142 87.5986 2.80406C86.8921 2.57582 86.1422 2.46713 85.3488 2.46713C84.6206 2.46713 83.9033 2.54321 83.2077 2.69537C82.5121 2.84753 81.8818 3.08663 81.3275 3.41269C80.7732 3.73874 80.3276 4.17348 79.9907 4.70603C79.6646 5.21685 79.4907 5.85809 79.4907 6.62974C79.4907 7.42314 79.6864 8.09698 80.0668 8.6404C80.4471 9.19469 80.9688 9.66204 81.6101 10.0642C82.2513 10.4663 82.9904 10.8032 83.8164 11.0858C84.6424 11.3684 85.4901 11.651 86.3704 11.9227C87.066 12.1292 87.7616 12.3574 88.4572 12.5965C89.1528 12.8356 89.8266 13.0965 90.4678 13.3899C91.1091 13.6834 91.7068 14.0203 92.2611 14.4007C92.8154 14.7811 93.2936 15.2158 93.6958 15.7158C94.1088 16.2157 94.4239 16.7917 94.6522 17.4438C94.8804 18.0959 95 18.8459 95 19.6827C95 20.9435 94.7717 22.052 94.3044 23.0193C93.8371 23.9758 93.1958 24.78 92.359 25.4213C91.533 26.0625 90.5439 26.5516 89.4027 26.8776C88.2616 27.2037 87.0225 27.3667 85.664 27.3667C84.4467 27.3667 83.2729 27.1602 82.1209 26.7472C80.9688 26.3342 79.9472 25.7473 79.0451 24.9865C78.143 24.2257 77.4257 23.3019 76.8714 22.2151C76.3171 21.1282 76.0237 19.9001 75.9911 18.5415H78.8495Z" fill="white"/>
</svg>
