<svg width="282" height="184" viewBox="0 0 282 184" fill="none" xmlns="http://www.w3.org/2000/svg">
<path d="M87.7143 160.342C65.3979 147.609 52.2032 128.705 58.2432 118.119C64.2831 107.533 87.2705 109.274 109.587 122.007C131.903 134.739 145.098 153.643 139.058 164.229C133.018 174.815 110.031 173.075 87.7143 160.342Z" fill="#606063"/>
<path d="M133.955 168.869L152.518 157.486L57.1984 103.101L57.0647 124.998L133.955 168.869Z" fill="#606063"/>
<path d="M61.8191 108.017L16.1409 81.9548C15.0621 81.3393 13.6877 81.7505 13.1243 82.8575L10.5834 87.8498C9.28943 90.3922 10.1799 93.5023 12.6233 94.9745L59.8812 123.449L61.8191 108.017Z" fill="#606063"/>
<path d="M94.808 147.909C67.9138 132.564 51.8022 110.152 58.8217 97.8488C65.8412 85.546 93.3337 88.0121 120.228 103.357C147.122 118.702 163.234 141.114 156.214 153.417C149.195 165.72 121.702 163.254 94.808 147.909Z" fill="url(#paint0_linear)"/>
<path d="M140.397 160.246C141.926 149.355 129.324 133.267 109.587 122.005C89.8497 110.744 69.5877 108.081 60.9893 114.939" stroke="#606063" stroke-width="2.175"/>
<path d="M59.7666 98.3875C56.5964 103.944 58.5173 112.112 64.9806 121.103C71.3826 130.008 82.004 139.351 95.3472 146.964C108.69 154.577 122.137 158.967 133.061 159.947C144.09 160.936 152.099 158.434 155.269 152.878C158.439 147.321 156.519 139.153 150.055 130.162C143.653 121.257 133.032 111.915 119.689 104.301C106.346 96.6884 92.8987 92.2981 81.9747 91.3182C70.9458 90.3288 62.9368 92.8312 59.7666 98.3875Z" stroke="#979797" stroke-width="2.175"/>
<path d="M55.364 103.208L55.0076 122.208" stroke="url(#paint1_linear)" stroke-width="3.225"/>
<mask id="mask0" mask-type="alpha" maskUnits="userSpaceOnUse" x="0" y="77" width="167" height="101">
<path d="M166.515 77.0039H0V177.498H166.515V77.0039Z" fill="white"/>
<path fill-rule="evenodd" clip-rule="evenodd" d="M87.7141 160.34C68.1073 149.153 55.5416 133.203 56.8755 122.316C56.9218 121.938 56.753 121.564 56.427 121.367L12.6228 94.9736C10.1794 93.5013 9.28894 90.3912 10.5829 87.8489L13.1238 82.8565C13.6872 81.7496 15.0616 81.3383 16.1404 81.9539L56.7988 105.152C56.9713 105.251 57.186 105.127 57.1872 104.928C57.1731 104.5 57.1756 104.078 57.1949 103.662L57.1982 103.12C57.1983 103.112 57.2074 103.107 57.2148 103.111C57.2219 103.115 57.2307 103.11 57.2314 103.102C57.3911 101.206 57.9122 99.4417 58.8218 97.8475C65.8412 85.5449 93.3336 88.011 120.228 103.356C147.122 118.701 163.233 141.113 156.214 153.416C155.304 155.01 154.051 156.356 152.5 157.458C152.493 157.463 152.494 157.473 152.501 157.478C152.508 157.482 152.508 157.492 152.501 157.497L151.787 157.935C151.691 157.995 151.594 158.055 151.496 158.114L136.208 167.488C127.551 174.243 107.372 171.556 87.7141 160.34Z" fill="black"/>
</mask>
<g mask="url(#mask0)">
<path d="M87.7139 160.34L89.3121 157.539L87.7139 160.34ZM12.6226 94.9736L10.9583 97.7358L12.6226 94.9736ZM10.5827 87.8489L13.4568 89.3117L10.5827 87.8489ZM13.1236 82.8565L15.9977 84.3193L13.1236 82.8565ZM16.1402 81.9539L17.7384 79.1528L16.1402 81.9539ZM57.1947 103.662L60.4161 103.812L60.4191 103.747L60.4195 103.682L57.1947 103.662ZM58.8216 97.8475L56.0206 96.2493L58.8216 97.8475ZM120.228 103.356L121.826 100.555L120.228 103.356ZM156.214 153.416L153.413 151.818L156.214 153.416ZM151.787 157.935L150.101 155.186L150.086 155.195L150.071 155.204L151.787 157.935ZM151.496 158.114L149.839 155.346L149.825 155.355L149.81 155.364L151.496 158.114ZM136.208 167.488L134.522 164.739L134.367 164.834L134.224 164.946L136.208 167.488ZM152.501 157.497L154.187 160.246L152.501 157.497ZM152.5 157.458L150.632 154.83L152.5 157.458ZM57.198 103.12L53.9732 103.101L57.198 103.12ZM56.7986 105.152L58.3967 102.351L56.7986 105.152ZM57.2312 103.102L60.4447 103.373L57.2312 103.102ZM56.8753 122.316L60.0763 122.708L56.8753 122.316ZM56.4268 121.367L54.7625 124.129L56.4268 121.367ZM53.6744 121.923C52.8485 128.664 56.3103 136.25 61.9287 143.237C67.6466 150.347 76.0196 157.381 86.1157 163.141L89.3121 157.539C79.8014 152.113 72.0881 145.578 66.955 139.195C61.7223 132.688 59.5683 126.855 60.0763 122.708L53.6744 121.923ZM10.9583 97.7358L54.7625 124.129L58.0911 118.605L14.287 92.2113L10.9583 97.7358ZM7.70862 86.3861C5.64734 90.4361 7.06589 95.3905 10.9583 97.7358L14.287 92.2113C13.2926 91.6121 12.9301 90.3464 13.4568 89.3117L7.70862 86.3861ZM10.2495 81.3937L7.70862 86.3861L13.4568 89.3117L15.9977 84.3193L10.2495 81.3937ZM17.7384 79.1528C15.0601 77.6247 11.6482 78.6457 10.2495 81.3937L15.9977 84.3193C15.7258 84.8535 15.0626 85.0519 14.542 84.7549L17.7384 79.1528ZM58.3967 102.351L17.7384 79.1528L14.542 84.7549L55.2004 107.953L58.3967 102.351ZM53.9733 103.513C53.9499 104.017 53.9471 104.524 53.9638 105.034L60.4101 104.822C60.3988 104.477 60.4009 104.14 60.4161 103.812L53.9733 103.513ZM53.9732 103.101L53.9698 103.643L60.4195 103.682L60.4229 103.14L53.9732 103.101ZM56.0206 96.2493C54.8594 98.2845 54.2133 100.508 54.0177 102.831L60.4447 103.373C60.5684 101.903 60.9647 100.599 61.6227 99.4456L56.0206 96.2493ZM121.826 100.555C108.071 92.7067 94.0301 88.0687 82.3597 87.0218C71.0002 86.0029 60.537 88.3336 56.0206 96.2493L61.6227 99.4456C64.1257 95.0587 70.9183 92.4712 81.7834 93.4459C92.3376 94.3926 105.49 98.6601 118.629 106.157L121.826 100.555ZM159.015 155.014C163.531 147.098 160.214 136.905 153.557 127.644C146.717 118.13 135.581 108.403 121.826 100.555L118.629 106.157C131.769 113.654 142.135 122.805 148.32 131.409C154.687 140.267 155.916 147.431 153.413 151.818L159.015 155.014ZM154.368 160.087C156.268 158.737 157.854 157.049 159.015 155.014L153.413 151.818C152.755 152.971 151.834 153.976 150.632 154.83L154.368 160.087ZM153.472 160.684L154.187 160.246L150.815 154.748L150.101 155.186L153.472 160.684ZM150.071 155.204C149.995 155.252 149.918 155.3 149.839 155.346L153.152 160.881C153.269 160.81 153.386 160.739 153.502 160.666L150.071 155.204ZM137.893 170.237L153.181 160.863L149.81 155.364L134.522 164.739L137.893 170.237ZM86.1157 163.141C96.238 168.917 106.581 172.55 115.629 173.846C124.517 175.119 132.824 174.219 138.191 170.031L134.224 164.946C130.934 167.512 124.823 168.647 116.543 167.461C108.423 166.298 98.8478 162.98 89.3121 157.539L86.1157 163.141ZM150.902 160.278C148.78 159.067 148.732 156.025 150.815 154.748L154.187 160.246C156.285 158.96 156.236 155.896 154.099 154.677L150.902 160.278ZM150.632 154.83C148.717 156.19 148.835 159.099 150.902 160.278L154.099 154.677C156.152 155.848 156.269 158.736 154.368 160.087L150.632 154.83ZM60.4229 103.14C60.4078 105.598 57.7515 107.13 55.6165 105.912L58.8127 100.31C56.663 99.0831 53.9883 100.626 53.9732 103.101L60.4229 103.14ZM55.2004 107.953C57.5152 109.274 60.3955 107.613 60.4118 104.948L53.9621 104.908C53.976 102.641 56.4269 101.227 58.3967 102.351L55.2004 107.953ZM55.6165 105.912C57.6837 107.091 60.2477 105.713 60.4447 103.373L54.0177 102.831C54.2134 100.507 56.7597 99.1383 58.8127 100.31L55.6165 105.912ZM60.0763 122.708C60.2668 121.153 59.5786 119.501 58.0911 118.605L54.7625 124.129C53.927 123.626 53.5765 122.723 53.6744 121.923L60.0763 122.708Z" fill="url(#paint2_linear)"/>
</g>
<mask id="mask1" mask-type="alpha" maskUnits="userSpaceOnUse" x="102" y="44" width="97" height="97">
<path d="M198.192 44.041H102.026V140.207H198.192V44.041Z" fill="white"/>
<path fill-rule="evenodd" clip-rule="evenodd" d="M123.002 115.282C114.525 106.805 118.898 88.6874 132.77 74.8155C146.642 60.9436 164.76 56.5704 173.237 65.0477C173.244 65.0548 173.251 65.062 173.258 65.0692L177.144 68.955C185.621 77.4322 181.248 95.5498 167.376 109.422C153.504 123.294 135.387 127.667 126.91 119.189L123.002 115.282Z" fill="black"/>
</mask>
<g mask="url(#mask1)">
<path d="M173.258 65.0692L170.962 67.3656L170.957 67.3604L173.258 65.0692ZM125.299 112.986C125.4 113.088 125.483 113.184 125.549 113.267C125.582 113.309 125.612 113.348 125.637 113.384C125.663 113.419 125.685 113.452 125.704 113.481C125.724 113.51 125.74 113.535 125.754 113.557C125.767 113.578 125.779 113.597 125.787 113.611C125.796 113.626 125.802 113.637 125.807 113.644C125.809 113.648 125.81 113.651 125.811 113.652C125.812 113.653 125.812 113.654 125.813 113.654C125.813 113.655 125.813 113.655 125.813 113.655C125.813 113.655 125.812 113.654 125.811 113.652C125.81 113.651 125.809 113.648 125.807 113.644C125.802 113.637 125.796 113.626 125.787 113.611C125.779 113.597 125.767 113.578 125.754 113.557C125.74 113.535 125.724 113.51 125.705 113.481C125.685 113.452 125.663 113.42 125.637 113.384C125.612 113.348 125.582 113.309 125.549 113.268C125.484 113.184 125.401 113.088 125.299 112.986L120.706 117.579C120.604 117.477 120.521 117.38 120.455 117.297C120.422 117.255 120.393 117.216 120.367 117.181C120.342 117.145 120.319 117.113 120.3 117.084C120.281 117.055 120.265 117.029 120.251 117.008C120.237 116.986 120.226 116.968 120.218 116.953C120.209 116.939 120.202 116.927 120.198 116.92C120.196 116.917 120.194 116.914 120.193 116.912C120.193 116.911 120.192 116.911 120.192 116.91C120.192 116.91 120.192 116.91 120.192 116.909C120.192 116.909 120.192 116.911 120.193 116.912C120.194 116.914 120.196 116.917 120.198 116.92C120.202 116.927 120.209 116.939 120.218 116.953C120.226 116.967 120.237 116.986 120.251 117.008C120.265 117.029 120.281 117.055 120.3 117.084C120.319 117.112 120.342 117.145 120.367 117.181C120.393 117.216 120.422 117.255 120.455 117.297C120.521 117.38 120.604 117.477 120.706 117.579L125.299 112.986ZM135.067 77.1119C128.483 83.6957 124.268 91.1815 122.662 97.8339C121.041 104.55 122.163 109.85 125.299 112.986L120.706 117.579C115.365 112.237 114.434 104.24 116.348 96.3098C118.278 88.3161 123.186 79.8072 130.474 72.5191L135.067 77.1119ZM170.94 67.3441C167.804 64.2082 162.504 63.0865 155.788 64.7076C149.136 66.3134 141.65 70.5281 135.067 77.1119L130.474 72.5191C137.762 65.231 146.271 60.3232 154.264 58.3937C162.195 56.4795 170.192 57.4099 175.533 62.7513L170.94 67.3441ZM170.957 67.3604C170.951 67.355 170.946 67.3495 170.94 67.3441L175.533 62.7513C175.542 62.7601 175.551 62.769 175.56 62.7779L170.957 67.3604ZM174.848 71.2514L170.962 67.3656L175.555 62.7728L179.44 66.6585L174.848 71.2514ZM165.08 107.125C171.664 100.541 175.878 93.0557 177.484 86.4033C179.105 79.6874 177.984 74.3873 174.848 71.2514L179.44 66.6585C184.782 71.9999 185.712 79.9972 183.798 87.9274C181.868 95.921 176.961 104.43 169.673 111.718L165.08 107.125ZM129.206 116.893C132.342 120.029 137.642 121.151 144.358 119.53C151.01 117.924 158.496 113.709 165.08 107.125L169.673 111.718C162.385 119.006 153.876 123.914 145.882 125.843C137.952 127.758 129.954 126.827 124.613 121.486L129.206 116.893ZM125.299 112.986L129.206 116.893L124.613 121.486L120.706 117.579L125.299 112.986Z" fill="#612F01"/>
<path d="M126.909 119.189C135.386 127.666 153.504 123.293 167.376 109.421C181.248 95.5493 185.621 77.4318 177.144 68.9545L173.236 65.0474L123.002 115.282L126.909 119.189Z" fill="#FEDC90"/>
<path d="M123.002 115.282C131.48 123.759 149.597 119.386 163.469 105.514C177.341 91.6425 181.714 73.5249 173.237 65.0477C164.76 56.5704 146.642 60.9436 132.77 74.8155C118.898 88.6874 114.525 106.805 123.002 115.282Z" fill="#D1884F"/>
</g>
<mask id="mask2" mask-type="alpha" maskUnits="userSpaceOnUse" x="184" y="0" width="98" height="97">
<path d="M281.162 0H184.996V96.166H281.162V0Z" fill="white"/>
<path fill-rule="evenodd" clip-rule="evenodd" d="M256.302 75.1248C256.28 75.1467 256.259 75.1684 256.237 75.1902C247.76 83.6674 229.642 79.2942 215.77 65.4223C201.899 51.5507 197.525 33.4337 206.002 24.9562V24.9559L209.909 21.0488C218.386 12.5716 236.504 16.9448 250.375 30.8166C264.247 44.6885 268.621 62.8061 260.143 71.2834L256.302 75.1248Z" fill="black"/>
</mask>
<g mask="url(#mask2)">
<path d="M256.302 75.1248L253.99 72.8439L253.998 72.8361L254.005 72.8284L256.302 75.1248ZM206.002 24.9562L208.298 22.6598L210.595 24.956L208.298 27.2524L206.002 24.9562ZM206.002 24.9559L203.705 27.2524L201.409 24.9559L203.705 22.6595L206.002 24.9559ZM253.941 72.8937C253.957 72.8773 253.973 72.8607 253.99 72.8439L258.614 77.4058C258.587 77.4326 258.56 77.4595 258.533 77.4866L253.941 72.8937ZM218.067 63.1259C224.65 69.7097 232.136 73.9245 238.789 75.5302C245.504 77.1513 250.805 76.0296 253.941 72.8937L258.533 77.4866C253.192 82.8279 245.195 83.7583 237.265 81.8441C229.271 79.9146 220.762 75.0068 213.474 67.7187L218.067 63.1259ZM208.298 27.2524C205.163 30.3885 204.041 35.6886 205.662 42.4044C207.268 49.0567 211.483 56.5422 218.067 63.1259L213.474 67.7187C206.186 60.4308 201.278 51.922 199.349 43.9285C197.434 35.9985 198.364 28.0014 203.705 22.6599L208.298 27.2524ZM208.298 22.6595V22.6598L203.705 27.2526V27.2524L208.298 22.6595ZM212.205 23.3452L208.298 27.2524L203.705 22.6595L207.612 18.7524L212.205 23.3452ZM248.079 33.1131C241.495 26.5292 234.01 22.3145 227.357 20.7088C220.641 19.0877 215.341 20.2093 212.205 23.3452L207.612 18.7524C212.954 13.411 220.951 12.4807 228.881 14.3949C236.875 16.3244 245.384 21.2322 252.672 28.5202L248.079 33.1131ZM257.847 68.9869C260.983 65.851 262.104 60.5509 260.483 53.835C258.878 47.1826 254.663 39.6969 248.079 33.1131L252.672 28.5202C259.96 35.8083 264.868 44.3173 266.797 52.311C268.711 60.2411 267.781 68.2384 262.44 73.5798L257.847 68.9869ZM254.005 72.8284L257.847 68.9869L262.44 73.5798L258.598 77.4212L254.005 72.8284Z" fill="#612F01"/>
<path d="M260.144 71.2822C268.621 62.805 264.248 44.6874 250.376 30.8155C236.504 16.9436 218.387 12.5704 209.909 21.0477L206.002 24.9548L256.237 75.1893L260.144 71.2822Z" fill="#D1884F"/>
<path d="M256.237 75.1899C264.714 66.7127 260.341 48.5951 246.469 34.7232C232.597 20.8513 214.479 16.4781 206.002 24.9554C197.525 33.4327 201.898 51.5502 215.77 65.4221C229.642 79.294 247.759 83.6672 256.237 75.1899Z" fill="#FEDC90"/>
</g>
<defs>
<linearGradient id="paint0_linear" x1="58.8217" y1="97.8488" x2="33.4024" y2="142.4" gradientUnits="userSpaceOnUse">
<stop stop-color="#404042"/>
<stop offset="1" stop-color="#48484B"/>
</linearGradient>
<linearGradient id="paint1_linear" x1="59.3471" y1="105.512" x2="51.0241" y2="119.904" gradientUnits="userSpaceOnUse">
<stop stop-color="#404042"/>
<stop offset="1" stop-color="#48484B"/>
</linearGradient>
<linearGradient id="paint2_linear" x1="86.4409" y1="87.3779" x2="79.9939" y2="167.865" gradientUnits="userSpaceOnUse">
<stop stop-color="#404042"/>
<stop offset="1" stop-color="#48484B"/>
</linearGradient>
</defs>
</svg>
