<svg width="200" height="64" viewBox="0 0 200 64" fill="none" xmlns="http://www.w3.org/2000/svg">
<path d="M35.7377 9.04583C35.7733 9.04583 35.7956 9.06383 35.8045 9.09983L36.0853 9.04583H36.6468C37.4401 9.04583 38.1621 9.16284 38.8128 9.39686C38.8306 9.65788 38.5944 9.8289 38.1042 9.90991C37.7654 10.1799 37.5872 10.3554 37.5694 10.4365L37.5827 10.4905C38.3493 10.5445 38.737 10.603 38.7459 10.666L38.8529 10.612L39.0802 10.666L39.3743 10.612C39.4902 10.702 39.8734 10.7965 40.5241 10.8955L40.8717 10.8415C40.8806 10.9765 41.5224 11.1115 42.797 11.2465L42.9307 11.4085L42.944 11.5301C42.953 11.6921 42.6989 11.8451 42.182 11.9891L42.1686 11.9351C41.2238 12.4751 40.5954 12.7452 40.2834 12.7452C39.9358 12.6642 39.7264 12.6237 39.6551 12.6237C39.5303 12.8937 39.4456 13.0287 39.401 13.0287H39.1737L38.7726 12.9747V13.0287L38.6523 12.9747H38.5988L38.6657 13.0827C38.5676 13.0827 38.5231 13.1817 38.532 13.3797C38.6835 13.3797 38.7593 13.3977 38.7593 13.4337L39.254 13.3257L39.3877 13.3797C39.4411 13.3437 39.5124 13.3257 39.6016 13.3257L39.7219 13.3797C39.713 13.3437 39.7308 13.3257 39.7754 13.3257C39.7843 13.3617 39.8066 13.3797 39.8422 13.3797L39.8289 13.3257L40.3503 13.4337L41.0322 13.3257L41.0455 13.3797L41.1391 13.3257C41.2282 13.3617 41.2906 13.3797 41.3263 13.3797L41.3129 13.3257C41.9279 13.3257 42.2488 13.4787 42.2756 13.7848L41.7809 14.0683V14.0143C41.665 14.0503 41.6071 14.0863 41.6071 14.1223C41.5714 14.1223 41.5536 14.1043 41.5536 14.0683C41.4912 14.0683 41.2862 14.1268 40.9386 14.2438V14.1898C40.582 14.2798 40.3191 14.3563 40.1497 14.4193C40.1497 14.3833 40.1319 14.3653 40.0963 14.3653C39.7932 14.6173 39.4233 14.7884 38.9866 14.8784C38.737 15.1394 37.9526 15.5444 36.6335 16.0935L36.6468 16.1475C36.6647 16.2285 36.7048 16.269 36.7672 16.269H37.1683C37.3554 16.269 37.449 16.2285 37.449 16.1475C37.6273 16.2195 37.7298 16.296 37.7565 16.377L37.7699 16.4985C37.7966 16.8045 37.6228 16.9981 37.2485 17.0791L37.2351 17.0116L36.8474 17.1331V17.0791C36.785 17.0791 36.2858 17.3266 35.35 17.8216H35.1227C34.8998 17.8216 34.7037 17.7631 34.5344 17.6461H34.4274C34.2492 18.3032 33.955 18.6317 33.545 18.6317C32.6448 18.9917 31.8961 19.3968 31.2989 19.8468C31.1741 19.8468 30.9646 20.0763 30.6705 20.5354C30.6259 20.5354 30.4432 20.6119 30.1223 20.7649V20.7109C29.846 20.8909 29.3647 21.2779 28.6784 21.872H28.4511C28.3709 21.872 28.3263 21.8315 28.3174 21.7505L28.304 21.6965C28.6784 21.1204 29.075 20.5804 29.4939 20.0763L30.002 19.2663C28.3531 20.3104 27.1275 21.1564 26.3253 21.8045C25.9598 22.5156 25.3939 23.0376 24.6273 23.3706L24.6407 23.4246C24.6407 23.4696 24.6585 23.4921 24.6942 23.4921C24.7298 23.9062 24.2975 24.2122 23.3973 24.4102C22.6129 24.9593 22.0157 25.4993 21.6057 26.0304C21.1333 26.4174 20.8436 26.8405 20.7367 27.2995C20.5138 27.4795 20.3668 27.7495 20.2955 28.1096C20.2331 28.1096 20.1796 28.1681 20.135 28.2851C20.1529 28.3571 20.193 28.3931 20.2554 28.3931H20.3757C20.6966 28.3931 21.6547 28.0646 23.2502 27.4075C23.8474 27.2185 24.6318 27.007 25.6033 26.7729L25.6167 26.8405C26.1247 26.7504 26.5169 26.6514 26.7932 26.5434V26.6109C27.7915 26.3409 29.3068 25.9944 31.339 25.5713C31.3301 25.5263 31.3479 25.5038 31.3925 25.5038L31.4058 25.5713C32.0298 25.3733 32.7384 25.2158 33.5317 25.0988L33.5183 25.0448C33.4024 25.0448 33.2464 25.0088 33.0503 24.9368C33.0147 24.9368 33.0013 24.9548 33.0102 24.9908C32.7874 24.9548 32.6314 24.9368 32.5423 24.9368C32.2303 24.9368 31.9094 24.9728 31.5797 25.0448V24.9908C30.2159 25.1438 29.1241 25.3148 28.304 25.5038V25.4498C27.6979 25.6838 27.23 25.8009 26.9002 25.8009L26.82 25.6793V25.6253C26.8111 25.5083 28.1124 25.1033 30.724 24.4102V24.4642L32.7963 23.8972V23.9512C33.9283 23.6452 34.7706 23.4516 35.3232 23.3706V23.3166L35.4302 23.3706C35.5015 23.3706 35.6174 23.3301 35.7778 23.2491V23.3166C35.9293 23.2446 36.1744 23.1861 36.5131 23.1411V23.1951L39.9626 22.6821V22.7361L40.0695 22.6821H41.099L41.4333 22.6146C41.5046 22.6506 41.7764 22.6911 42.2488 22.7361C42.4003 22.7001 42.534 22.6821 42.6499 22.6821C42.6856 22.6821 42.7034 22.7001 42.7034 22.7361L42.9842 22.6821H43.3318L43.6125 22.7361V22.6821L44.2008 22.8576V22.7901C44.9406 22.9521 45.4442 23.0871 45.7116 23.1951V23.1411C46.5673 23.3751 47.3115 23.7982 47.9444 24.4102C48.4079 25.2203 48.7198 25.7199 48.8803 25.9089C49.0051 26.1789 49.1744 26.4129 49.3883 26.6109C49.5399 26.962 49.6379 27.403 49.6825 27.9341V27.9881C49.6914 28.0781 49.678 28.1546 49.6424 28.2176C49.6958 28.2986 49.7226 28.3571 49.7226 28.3931C49.678 28.3931 49.6557 28.4111 49.6557 28.4471H49.7226C49.4908 29.8782 49.2635 30.5938 49.0407 30.5938C49.0496 30.6928 48.8491 30.9988 48.4391 31.5119C48.4123 31.6919 48.0914 32.1734 47.4764 32.9565L47.3294 33.186C47.3472 33.4111 47.111 33.7576 46.6208 34.2256C46.0147 34.7657 45.7161 35.1122 45.725 35.2652C45.2526 35.8053 45.0164 36.0978 45.0164 36.1428C44.3925 37.0249 43.7864 37.754 43.1981 38.33C43.207 38.393 43.1179 38.4875 42.9307 38.6135C42.6187 38.9376 42.1909 39.2661 41.6472 39.5991C41.0232 40.1662 40.5241 40.5532 40.1497 40.7602C40.1497 40.7152 40.1319 40.6927 40.0963 40.6927C39.5971 41.1338 39.147 41.4623 38.7459 41.6783C38.7459 41.7233 38.6167 41.7998 38.3582 41.9078C38.2869 41.8718 38.2111 41.8538 38.1309 41.8538L38.1175 41.7323C39.0712 41.0663 39.82 40.4902 40.3637 40.0042C41.7185 38.564 42.4672 37.736 42.6098 37.5199C43.2872 36.9439 43.7685 36.3498 44.0537 35.7378H44.0003C42.9307 36.5568 42.3959 36.9979 42.3959 37.0609C42.1017 37.4569 41.7096 37.745 41.2193 37.925C40.5419 38.537 39.7174 39.1131 38.7459 39.6531C38.3715 40.0672 37.9393 40.3777 37.449 40.5847C37.4579 40.6747 37.1727 40.9627 36.5934 41.4488C36.112 41.7008 35.4926 42.1824 34.7349 42.8934L33.652 43.6495C33.4826 43.8925 33.2019 44.14 32.8097 44.3921V44.4596L34.4007 43.7035C34.5611 43.6495 35.1048 43.3615 36.0318 42.8394C36.1833 42.8394 36.2591 42.8214 36.2591 42.7854C36.3839 42.8214 36.4686 42.8979 36.5131 43.0149C35.9962 43.42 35.0202 44.0725 33.5851 44.9726C33.5851 44.9366 33.5673 44.9186 33.5317 44.9186C33.4603 45.0986 32.8944 45.4272 31.8337 45.9042C31.2454 46.2912 30.1045 46.9258 28.411 47.8079C28.4021 47.7629 28.3798 47.7404 28.3441 47.7404C27.3191 48.5054 26.4278 49.0275 25.6702 49.3065L25.5365 49.131C25.5632 49.05 26.0312 48.6855 26.9403 48.0374L27.3681 47.6324H27.3147C27.2344 47.6324 26.976 47.7494 26.5392 47.9834L25.9509 47.8079H25.6568C25.0596 47.8619 24.6541 48.0329 24.4401 48.3209C24.2173 48.69 23.6825 49.095 22.8358 49.536C22.6129 49.7791 21.8865 50.2021 20.6565 50.8051L19.0387 52.0203L18.9317 51.9663C18.6198 52.0653 18.1073 52.3353 17.3942 52.7763C16.7257 53.1364 15.879 53.5009 14.8539 53.8699C14.4083 54.0589 13.2406 54.4415 11.351 55.0175C11.3599 55.0625 11.3466 55.085 11.3109 55.085C11.302 55.04 11.2753 55.0175 11.2307 55.0175C11.2396 55.1255 10.9143 55.3011 10.2547 55.5441L10.1344 55.4901L10.0274 55.5441C9.92936 55.5261 9.84469 55.4316 9.77338 55.2606L12.1666 53.8699C12.5855 53.5099 13.2897 53.0464 14.279 52.4793C14.3147 52.4793 14.3503 52.4208 14.386 52.3038L14.6668 52.3713C14.7024 52.3713 14.7202 52.3488 14.7202 52.3038C14.8005 52.3488 14.9787 52.3893 15.255 52.4253C15.6383 52.4253 15.8077 52.2138 15.7631 51.7907C16.1374 51.7097 16.3157 51.5567 16.2979 51.3317L16.231 51.2102L16.2177 51.1562C16.2177 51.1202 16.2355 51.1022 16.2711 51.1022L16.2043 50.9807V50.9267C17.1491 50.5126 18.1474 49.9321 19.1991 49.185C19.3418 49.185 19.4888 49.0905 19.6404 48.9015L19.627 48.8475L18.4237 49.3605L18.4103 49.3065C18.1964 49.3065 17.4967 49.6125 16.3113 50.2246C16.2132 50.3326 15.8834 50.4496 15.3219 50.5756C15.1258 50.7376 14.4974 50.9672 13.4367 51.2642C13.3654 51.3182 13.3298 51.3767 13.3298 51.4397L13.2094 51.3857C13.0133 51.3857 12.18 51.6557 10.7093 52.1958L10.5889 52.2498V52.1958C9.90262 52.4298 9.05586 52.7583 8.04867 53.1814H7.80801L7.79464 53.0058C7.82138 52.9248 8.60129 52.4613 10.1344 51.6152C10.3037 51.5612 10.5577 51.4082 10.8965 51.1562C10.9054 51.1922 10.9321 51.2102 10.9767 51.2102L12.5409 50.1706V50.1166C11.302 50.7286 9.46587 51.3812 7.03256 52.0743C6.41754 52.3083 5.04044 52.7133 2.90126 53.2894C2.0545 53.6404 1.13644 53.9689 0.147069 54.275L0 54.0994V54.0454C0 54.0004 0.601645 53.6719 1.80493 53.0599C3.36475 52.2138 4.50119 51.6962 5.21425 51.5072C5.20534 51.4082 5.55296 51.2147 6.2571 50.9267V50.9807C6.78298 50.9357 7.13506 50.8412 7.31332 50.6971C7.30441 50.5801 7.25093 50.4226 7.15288 50.2246L7.82138 49.8871C7.89268 49.9231 7.95062 49.9411 7.99519 49.9411C8.69933 49.689 9.03804 49.401 9.0113 49.077L8.99793 48.9555C8.9088 48.9555 8.30269 49.1895 7.17962 49.6575L6.49776 49.8196C6.48885 49.7836 6.46656 49.7656 6.43091 49.7656C6.32395 49.9096 5.99862 50.1031 5.45491 50.3461C5.30338 50.2921 5.22317 50.2336 5.21425 50.1706L5.20088 50.0626C6.71614 49.1715 8.35617 48.2624 10.121 47.3353C10.121 47.3803 10.1388 47.4028 10.1745 47.4028C10.2101 47.3128 10.8875 46.9438 12.2067 46.2957C12.4563 46.1067 13.361 45.5307 14.9208 44.5676H15.0812C15.1614 44.5766 15.2016 44.6171 15.2016 44.6891L15.2149 44.7431C15.099 44.7431 14.4796 45.3191 13.3565 46.4713V46.5388H13.41C13.4278 46.4848 14.0874 46.1382 15.3887 45.4992C16.5118 44.9321 17.5858 44.3156 18.6109 43.6495C19.6894 43.0644 20.5406 42.5604 21.1645 42.1374H21.218L21.2046 41.9753C19.6626 42.5874 18.8515 42.8934 18.7713 42.8934C18.7713 42.9294 18.7178 42.9699 18.6109 43.0149C18.602 42.9699 18.5797 42.9474 18.544 42.9474C18.5529 43.0374 18.0582 43.2715 17.06 43.6495H17.0065C16.9352 43.6495 16.8951 43.609 16.8862 43.528V43.474C16.904 43.348 17.2783 43.1184 18.0092 42.7854C18.2142 42.5964 18.5975 42.3624 19.159 42.0834C20.398 41.2553 21.3428 40.6972 21.9934 40.4092C22.4391 40.1212 22.8491 39.8331 23.2235 39.5451C23.5889 39.5451 25.0863 38.582 27.7158 36.6559C27.7158 36.6108 27.9698 36.4173 28.4778 36.0753C28.6294 36.1383 28.7096 36.1968 28.7185 36.2508C28.7274 36.3318 28.3575 36.7189 27.6088 37.4119L25.6702 39.3696H25.7905C25.844 39.3696 26.4412 39.0051 27.5821 38.276C28.3308 37.772 28.7452 37.5199 28.8255 37.5199C29.0839 37.6369 29.3201 37.6954 29.5341 37.6954C30.0599 37.6954 30.3051 37.4659 30.2694 37.0069C30.5725 36.9169 30.724 36.8584 30.724 36.8314C31.0894 36.9484 31.3033 37.0069 31.3657 37.0069H31.9406L31.9005 36.6559C31.9629 36.5568 31.9941 36.4983 31.9941 36.4803H31.9406L32.0209 36.0753H31.9674C31.9406 35.8233 32.0922 35.5758 32.422 35.3327C33.5005 34.5317 34.4765 33.9151 35.35 33.4831C36.6959 32.511 37.4 31.8359 37.4624 31.4579C37.4802 31.3319 37.4847 31.1969 37.4758 31.0528C37.2886 31.0168 37.1905 30.9763 37.1816 30.9313C35.087 31.5344 33.389 32.2094 32.0877 32.9565C31.4549 33.3706 30.5814 33.7936 29.4672 34.2256C28.772 34.6397 27.5375 35.1617 25.7638 35.7918L25.7504 35.7378L25.6434 35.7918C25.5721 35.7918 25.532 35.7333 25.5231 35.6163C25.5142 35.5173 25.7994 35.3057 26.3788 34.9817C27.4127 34.3156 28.2862 33.6226 28.9993 32.9025H28.8789C27.3369 33.7036 25.8351 34.3786 24.3733 34.9277C24.3822 34.9907 23.7003 35.2967 22.3277 35.8458C19.9568 36.5748 18.3479 36.9394 17.5012 36.9394C15.8077 36.9394 14.5152 36.3048 13.6239 35.0357H13.6908C13.5392 34.8377 13.3565 34.5317 13.1426 34.1176H13.0891L13.1025 34.2931C13.1381 34.2931 13.156 34.3111 13.156 34.3471H13.1025C13.2718 34.9592 13.5348 35.5353 13.8913 36.0753C13.9715 36.0753 14.0205 36.1743 14.0384 36.3723V36.4803L13.7576 36.5343C12.7771 35.7873 12.024 34.5947 11.4981 32.9565L11.458 32.4435L11.3911 32.322H11.4446C11.3555 32.1509 11.2975 31.9034 11.2708 31.5794C11.1638 30.3553 11.1995 29.4687 11.3778 28.9196C11.3778 28.8746 11.3599 28.8521 11.3243 28.8521L11.5248 27.9341H11.4714L12.8217 24.3562C13.5526 23.0691 14.1587 22.142 14.64 21.575C14.6311 21.485 14.8851 21.1204 15.4021 20.4814C15.6338 20.2654 15.9547 19.8423 16.3647 19.2123C16.445 19.2123 16.953 18.6902 17.8889 17.6461L18.2766 17.4166C18.3568 17.4616 18.4148 17.4841 18.4504 17.4841L18.4638 17.6461L17.4477 18.9827C16.9575 19.7838 16.592 20.4589 16.3514 21.0079C16.4405 21.0079 16.7079 20.7379 17.1536 20.1978C18.4905 18.8207 19.9568 17.4706 21.5522 16.1475C22.5951 15.2204 23.7984 14.4148 25.1621 13.7308C26.0623 13.0917 26.6818 12.7632 27.0205 12.7452C27.0205 12.6642 26.9804 12.6237 26.9002 12.6237C25.4473 13.0107 23.8608 13.6452 22.1405 14.5273C21.3562 15.3014 20.8615 15.6884 20.6565 15.6884C20.603 15.6164 20.5718 15.5579 20.5629 15.5129C20.5985 15.3599 20.9863 14.9954 21.7261 14.4193C25.1131 12.2321 27.1007 11.134 27.689 11.125C29.4093 10.2429 30.568 9.8019 31.1652 9.8019C31.6554 9.58588 32.6492 9.37436 34.1467 9.16734C34.1823 9.16734 34.2046 9.18534 34.2135 9.22134C34.5433 9.14034 34.9979 9.09983 35.5772 9.09983H35.6976C35.7332 9.09983 35.7466 9.08183 35.7377 9.04583ZM44.5484 10.9495C45.0921 11.0575 45.3729 11.233 45.3907 11.476L45.4175 11.7056L45.1501 11.9891C44.3746 11.8451 43.9824 11.6921 43.9735 11.5301L43.9468 11.3545C44.1161 11.0845 44.3167 10.9495 44.5484 10.9495Z" fill="url(#paint0_linear)"/>
<path d="M76.9169 0.580553C76.9169 0.616556 76.9347 0.634558 76.9704 0.634558V0.580553C77.006 0.580553 77.0239 0.598555 77.0239 0.634558L77.2913 0.580553H77.4517C77.4874 0.580553 77.5052 0.598555 77.5052 0.634558L77.6121 0.580553C77.6834 0.616556 77.7369 0.634558 77.7726 0.634558C77.7726 0.598555 77.7904 0.580553 77.8261 0.580553V0.634558L77.933 0.580553C77.9687 0.580553 77.9865 0.598555 77.9865 0.634558L78.0935 0.580553C78.1469 0.580553 78.2227 0.65256 78.3207 0.796573V0.850578C77.1888 1.21061 76.1593 1.66065 75.2323 2.2007C75.2501 2.27271 75.2902 2.30871 75.3526 2.30871L75.3393 2.25471L75.4596 2.30871H75.9409C76.5024 2.30871 77.0907 2.12869 77.7057 1.76866C77.7414 1.76866 77.7637 1.78666 77.7726 1.82267V1.87667C77.8082 1.87667 77.8261 1.85867 77.8261 1.82267C78.0756 1.96668 78.294 2.03869 78.4812 2.03869H78.6416C78.6149 1.75966 78.7218 1.56164 78.9625 1.44463C78.9803 1.44463 79.0561 1.46263 79.1898 1.49864C79.9207 1.42663 80.3797 1.37263 80.5669 1.33662V1.39063L80.6738 1.33662H81.1017C81.4849 1.33662 82.2381 1.22861 83.3612 1.01259H83.4681C83.4771 1.03059 83.5038 1.1026 83.5484 1.22861C82.969 1.51664 82.1089 1.89467 80.968 2.36272L80.9813 2.41672H81.0883C81.5518 2.41672 81.9217 2.38072 82.198 2.30871L82.5189 2.36272H82.6793C82.9645 2.36272 83.281 2.32671 83.6286 2.25471L83.642 2.30871L84.0029 2.2007V2.25471L84.1099 2.2007H84.9656C85.0369 2.2097 85.077 2.24571 85.0859 2.30871L85.0993 2.47073C85.1171 2.71375 84.4932 2.92977 83.2275 3.11879C83.0492 3.11879 82.9111 3.15479 82.813 3.2268L82.7997 3.17279C82.6303 3.21779 82.5456 3.2718 82.5456 3.33481L82.4387 3.2808L81.8237 3.55082V3.49682C81.2532 3.71284 80.5535 3.87485 79.7246 3.98286C77.9598 4.53191 77.0105 4.89195 76.8768 5.06296H76.9838C77.6344 4.99096 78.089 4.90095 78.3475 4.79294C78.3831 4.79294 78.401 4.81094 78.401 4.84694L79.885 4.63092V4.68493L79.992 4.63092H80.4733L80.6471 4.73893C80.656 4.91895 80.3619 5.04496 79.7647 5.11697C77.9731 5.69302 76.9169 6.07106 76.596 6.25107V6.19707C75.8295 6.5391 75.1298 6.89913 74.497 7.27717C74.1672 7.45718 73.7705 7.6012 73.307 7.70921C73.1199 7.83522 72.8302 7.97923 72.438 8.14124C72.1884 8.06924 71.8809 8.01523 71.5155 7.97923L71.208 8.19525C71.0832 8.36627 71.0252 8.52828 71.0342 8.68129V8.7353C71.1144 8.7353 71.1901 8.7533 71.2615 8.7893L71.2481 8.7353C71.2837 8.7353 71.306 8.7533 71.3149 8.7893C72.0013 8.66329 72.4023 8.55528 72.5182 8.46527C72.6965 8.50128 72.7856 8.53728 72.7856 8.57328L73.6279 8.41127C73.7081 8.44727 73.7661 8.46527 73.8017 8.46527L75.7537 7.93873C74.595 8.57778 73.9755 8.93332 73.8953 9.00532L73.7884 8.95132L72.6385 9.32935V9.27535L71.7561 9.54537L71.7428 9.49137C71.1099 9.70739 70.486 9.8694 69.871 9.97741L69.8576 9.92341C69.5189 10.1034 69.3139 10.1934 69.2426 10.1934C69.2426 10.1574 69.2248 10.1394 69.1891 10.1394C69.198 10.2564 69.0777 10.3284 68.8281 10.3554C68.8281 10.4095 68.6053 10.5175 68.1596 10.6795C68.017 10.7875 67.451 11.0575 66.4617 11.4896C66.1853 11.7326 65.9135 11.8766 65.6461 11.9216L64.2957 11.7056C64.0016 11.7056 63.8011 11.8856 63.6941 12.2456C63.5782 12.4886 63.1147 12.8487 62.3036 13.3257L61.956 14.9054C61.6262 15.6884 61.39 16.476 61.2474 17.2681C60.4363 18.1952 60.0352 18.7352 60.0441 18.8882L59.9104 19.2123H59.9639C59.955 19.3023 59.701 19.8243 59.2018 20.7784L58.3729 22.3985C58.2303 22.6146 58.0565 23.0646 57.8515 23.7487C56.871 25.6298 56.3986 26.7819 56.4343 27.205C56.3986 27.205 56.3852 27.241 56.3941 27.313H56.1267V27.259C56.1535 26.7549 56.2248 26.3769 56.3407 26.1249H56.2872C56.5189 25.1258 56.8042 24.0817 57.1429 22.9926L57.1295 22.8846C56.9156 22.9566 56.5769 23.5687 56.1134 24.7208C55.8371 25.1798 55.7078 25.5218 55.7257 25.7469C55.6722 25.7469 55.5741 25.8549 55.4315 26.0709C55.1819 26.3589 55.0037 26.7549 54.8967 27.259C54.7363 27.295 54.5669 27.637 54.3887 28.2851C53.8271 28.9241 53.5018 29.4642 53.4127 29.9052C53.3414 29.9142 53.3057 29.9502 53.3057 30.0132C53.3414 30.0132 53.3636 30.0312 53.3726 30.0672C53.221 30.1933 52.9224 30.8593 52.4768 32.0654C52.4857 32.1554 52.4545 32.2454 52.3832 32.3355C52.4188 32.3355 52.4411 32.3535 52.45 32.3895L52.2896 32.4975L52.3564 32.6055C52.2762 32.7225 52.2361 32.8845 52.2361 33.0915C52.3163 33.0645 52.4545 32.8125 52.6506 32.3355C52.7843 32.1464 53.5731 30.8773 55.017 28.5281L54.9636 28.4606L54.9769 28.5146C54.4243 30.3148 54.0054 31.5704 53.7202 32.2815H53.6667L53.7335 32.3895C53.582 32.6505 53.2611 33.4606 52.7709 34.8197C52.0311 36.5928 51.5453 38.015 51.3136 39.0861L50.5114 41.2058L50.7521 39.9502L50.9927 37.2499C50.5025 38.168 50.1549 39.2841 49.9499 40.5982C49.8162 40.8142 49.7359 40.9222 49.7092 40.9222L49.7226 41.0843L49.8696 41.4623L49.4017 42.3804C49.4106 42.4344 49.2992 42.5784 49.0675 42.8124C48.9783 42.6594 48.8847 42.5694 48.7867 42.5424C48.7154 42.5424 48.5995 42.6684 48.4391 42.9204L48.5059 43.0284C48.5059 43.1094 48.4925 43.1814 48.4658 43.2445L48.5327 43.3525C48.497 43.4245 48.4836 43.4785 48.4925 43.5145C48.4925 43.5775 48.604 43.8475 48.8268 44.3246C48.8357 44.4686 48.6842 44.7926 48.3722 45.2966C47.8374 46.7188 47.3472 47.8529 46.9015 48.699L46.5004 50.1031H46.447L46.5004 50.2111C46.2509 51.0032 46.0681 51.9933 45.9523 53.1814L45.8587 53.2354H45.8052L45.6849 53.1814C45.6938 51.5702 45.7651 50.3281 45.8988 49.455C45.8988 49.419 45.881 49.401 45.8453 49.401L45.8988 48.807C45.8453 48.6089 45.8141 48.4649 45.8052 48.3749C45.7874 48.1049 45.8587 47.8709 46.0191 47.6729C46.0013 47.4568 45.8631 47.2948 45.6047 47.1868C45.4086 47.4298 45.3105 47.5739 45.3105 47.6189C45.364 47.9069 45.413 48.0509 45.4576 48.0509C45.3595 48.2039 45.2659 48.5459 45.1768 49.077C44.4548 49.7971 44.0627 50.4271 44.0003 50.9672C43.9557 50.9672 43.8621 51.1112 43.7195 51.3992H43.773C43.2114 52.6953 42.9396 53.4874 42.9574 53.7754C42.797 54.0814 42.6365 54.6755 42.4761 55.5576C42.3513 55.5936 42.28 55.6116 42.2622 55.6116C42.2265 55.5396 42.2042 55.4856 42.1953 55.4496C42.2666 54.1535 42.4494 52.9473 42.7435 51.8312C42.7257 51.6782 42.8371 51.1022 43.0777 50.1031L43.0376 49.7791L42.9307 49.725C42.7168 50.5621 42.4939 51.0482 42.2622 51.1832L41.7541 52.1553C41.4154 52.4073 41.255 52.6413 41.2728 52.8573C41.3085 52.8573 41.3307 52.8753 41.3397 52.9113H41.2862C41.3486 53.1994 41.3976 53.3434 41.4333 53.3434C41.4867 54.0364 41.3129 54.5045 40.9118 54.7475C40.6444 54.9815 40.4795 55.3596 40.4171 55.8816C40.23 56.2866 40.0116 56.6287 39.762 56.9077C39.352 57.5288 39.1515 57.9068 39.1604 58.0418C38.8395 58.3298 38.5186 59.1399 38.1977 60.472C37.9303 61.0841 37.6184 62.2182 37.2618 63.8743H37.1014C37.0301 63.8743 36.99 63.8383 36.9811 63.7663C37.4089 60.8951 37.8234 58.6629 38.2245 57.0697C38.3938 56.5657 38.6211 55.6836 38.9063 54.4235C39.5035 52.6953 39.9447 51.2372 40.23 50.0491C40.3013 50.0491 40.3325 50.0131 40.3236 49.9411H40.2166C40.2255 49.9591 40.0339 50.3731 39.6417 51.1832L38.7593 53.4514H38.6523L38.4919 53.3434C38.4741 53.1994 38.7949 51.9933 39.4545 49.725C39.7932 48.708 40.2032 47.6819 40.6845 46.6468C40.6311 46.4487 40.5999 46.2867 40.591 46.1607C40.7336 45.6927 40.8895 45.4587 41.0589 45.4587L41.1792 45.5127C41.5892 45.3506 41.7809 45.1166 41.7541 44.8106C41.8878 44.8106 42.026 44.5586 42.1686 44.0545L42.1552 43.7845L41.7942 42.7044C41.9636 42.1464 42.182 41.5883 42.4494 41.0303C42.592 40.2742 42.7168 39.8961 42.8237 39.8961C43.2159 39.1041 43.5145 38.186 43.7195 37.1419C44.3167 35.4587 44.7802 34.2526 45.11 33.5236L45.2437 33.1455H45.1902C44.691 33.8566 44.1295 34.7927 43.5056 35.9538C43.5056 35.9898 43.2694 36.5478 42.797 37.6279L42.1017 39.4641C42.1374 39.4641 42.1552 39.4821 42.1552 39.5181C42.0928 39.5181 42.0037 39.7521 41.8878 40.2202H41.9413C41.8433 40.5442 41.7363 40.7242 41.6204 40.7602C41.5491 40.7602 41.509 40.7062 41.5001 40.5982C41.4734 40.2472 41.7987 39.0411 42.4761 36.9799C42.8772 35.5397 43.2961 34.4417 43.7329 33.6856L44.8426 31.0393C45.7072 28.7801 46.5004 27.016 47.2224 25.7469C47.5165 24.9908 48.1271 23.7757 49.0541 22.1015L49.0675 22.196C48.39 23.5552 48.3544 23.5777 48.9605 22.2635C48.194 24.0817 47.7394 25.2788 47.5968 25.8549C46.955 27.493 46.6386 28.3391 46.6475 28.3931V28.4471H46.701C46.5851 28.7441 46.5316 28.9601 46.5405 29.0952C47.1288 28.0421 47.4898 27.448 47.6235 27.313C47.7126 27.214 47.833 26.7639 47.9845 25.9629C48.1271 25.4678 48.3722 24.9998 48.7198 24.5587C49.3081 23.8297 49.6022 23.2896 49.6022 22.9386H49.5488L50.1237 21.5885C50.2395 21.2644 50.2886 21.0124 50.2707 20.8324C50.1549 20.3284 50.0256 20.0763 49.883 20.0763L49.9231 19.9683L49.7493 19.7523C49.7137 19.3473 50.0702 18.9512 50.8189 18.5642C51.5587 18.3122 52.1915 17.9881 52.7174 17.5921C52.8422 17.4841 52.9447 17.4301 53.0249 17.4301L53.0116 17.3761C53.0116 17.3311 52.8556 17.1331 52.5436 16.782L52.5303 16.728C52.5748 16.575 52.8288 16.431 53.2923 16.296C53.5686 16.035 53.4973 15.7829 53.0784 15.5399C52.6951 15.5399 52.245 15.7019 51.7281 16.026C51.5765 16.026 50.8546 16.368 49.5621 17.0521C49.0095 17.5201 48.6931 17.7541 48.6129 17.7541C48.1137 17.7181 47.7929 17.7001 47.6502 17.7001C47.2581 17.8171 46.9372 18.0512 46.6876 18.4022C46.2954 18.5822 45.8765 18.6722 45.4308 18.6722C45.1724 18.6272 45.0431 18.5732 45.0431 18.5102C42.9128 19.0502 41.1257 19.8243 39.6818 20.8324C39.6194 20.8324 39.2139 21.1024 38.4651 21.6425H38.3582L38.2913 21.5345L38.278 21.3725C40.1854 19.6983 41.4199 18.7262 41.9814 18.4562L42.3825 18.1322H42.329C42.0082 18.1322 41.5224 18.2582 40.8717 18.5102C40.8628 18.4742 40.8405 18.4562 40.8049 18.4562L40.5107 18.6722C40.5107 18.7262 40.2567 18.8702 39.7486 19.1042C39.6773 19.0682 39.4946 19.0322 39.2005 18.9962C38.8618 19.3023 38.4651 19.4823 38.0106 19.5363V19.4823C37.6095 19.5903 37.2485 19.7343 36.9276 19.9143C35.9561 20.2744 34.9934 20.7064 34.0397 21.2104L33.9194 21.0484L33.906 20.8864L35.5772 19.2123L35.6976 19.2663H35.965C36.2324 19.2663 36.4285 19.0682 36.5532 18.6722C37.293 18.3842 37.6808 18.1502 37.7164 17.9701L37.6095 17.9161C37.6095 17.9521 37.5916 17.9701 37.556 17.9701V17.9161C37.3332 17.9791 36.9009 18.1592 36.2591 18.4562L34.4675 19.2663L34.3472 19.2123H34.2937C34.3027 19.3293 33.9595 19.4733 33.2643 19.6443C32.3551 19.9503 31.0404 20.6344 29.3201 21.6965C29.0171 21.8405 28.8299 21.9125 28.7586 21.9125C28.411 22.1645 28.2238 22.2905 28.1971 22.2905C28.1258 22.2545 28.0723 22.2365 28.0366 22.2365L28.0233 22.0205C28.1659 21.9395 28.5803 21.5795 29.2667 20.9404C29.338 20.9404 29.7034 20.6524 30.363 20.0763C33.3311 18.0962 35.0469 17.1061 35.5104 17.1061C35.8758 17.1061 36.6869 16.818 37.9437 16.242C38.8083 16.08 39.4456 15.8279 39.8556 15.4859C39.8556 15.4499 39.869 15.3959 39.8957 15.3239C39.869 15.3239 39.762 15.3059 39.5748 15.2699C39.2896 15.4049 38.8172 15.5309 38.1576 15.6479C37.8189 15.8279 37.5961 15.918 37.4891 15.918C37.4802 15.8459 37.4401 15.8099 37.3688 15.8099C37.5025 15.5579 38.0284 15.2339 38.9465 14.8379C40.7024 13.9198 41.8388 13.2537 42.3558 12.8397H42.4093C42.5875 12.8397 42.9842 12.8802 43.5992 12.9612C43.6616 12.8892 43.7329 12.8892 43.8131 12.9612C43.8309 13.1322 43.8577 13.2177 43.8933 13.2177V13.2717C43.8755 12.8937 44.0493 12.6417 44.4147 12.5156C44.5484 12.3446 44.7178 12.2546 44.9228 12.2456H45.0297L45.1501 12.2996C45.1412 12.2636 45.1545 12.2456 45.1902 12.2456L45.2036 12.2996C45.257 12.2996 45.3729 12.2276 45.5512 12.0836C45.4977 11.8226 45.4086 11.5886 45.2838 11.3815C45.257 11.1295 45.6626 10.8775 46.5004 10.6255C46.8748 10.5805 47.3026 10.3644 47.7839 9.97741L47.8909 10.0314C50.2173 8.87031 52.3654 7.97023 54.3352 7.33117C55.8504 6.5391 56.978 6.14306 57.7178 6.14306C58.1278 5.89104 59.3489 5.60301 61.3811 5.27898L61.448 5.38699V5.441C61.234 5.69302 60.9622 5.81903 60.6324 5.81903C60.0619 6.06205 59.7723 6.22407 59.7634 6.30508C60.0218 6.34108 60.1823 6.37708 60.2447 6.41309V6.35908L60.3516 6.41309H60.5655C61.6708 6.41309 62.2056 6.19707 62.1699 5.76503C62.4373 5.00896 62.727 4.63092 63.039 4.63092H63.1459C63.6362 4.70293 63.9437 4.73893 64.0685 4.73893H64.1754C64.3537 4.73893 64.5676 4.57692 64.8172 4.25289L64.7637 4.14488L64.8573 4.09087H64.9108L65.0846 4.19888C65.4411 3.88386 65.7664 3.70384 66.0606 3.65883C66.0606 3.58683 66.0918 3.55082 66.1542 3.55082H66.2076C66.2789 3.55082 66.3191 3.60483 66.328 3.71284C66.5597 3.36181 66.8449 3.14579 67.1836 3.06478C67.2817 2.92077 67.607 2.79476 68.1596 2.68675L69.9378 2.2007V2.25471C70.9272 1.74166 72.8079 1.21961 75.5799 0.688563L76.9169 0.580553Z" fill="url(#paint1_linear)"/>
<path d="M81.4092 12.3401H81.5295C82.2871 12.3401 83.174 12.8622 84.1901 13.9063C84.2079 14.0863 84.5734 14.5498 85.2865 15.2969C85.3399 15.2969 85.6653 15.5084 86.2625 15.9315V15.3509H86.3694C86.6635 15.6479 87.0468 16.323 87.5192 17.3761C87.5638 17.8801 87.8446 18.4022 88.3615 18.9422V19.0097L88.4818 18.9422H88.5353C88.6334 19.2483 88.6869 19.4823 88.6958 19.6443C88.7492 20.1933 88.7314 20.5984 88.6423 20.8594H88.6958L88.2412 23.5867C88.2501 23.7487 88.103 24.0187 87.8 24.3967L87.6797 24.3427C87.6529 24.0457 87.7421 23.5597 87.9471 22.8846C87.9916 22.5426 88.0362 22.3715 88.0808 22.3715L88.0139 22.25L88.054 22.1285L87.8802 21.494C87.9248 21.494 87.9471 21.476 87.9471 21.44C87.9025 21.44 87.8757 21.422 87.8668 21.386H87.9337L87.8668 21.2644L87.8936 20.9134V20.8594H87.7732C87.7822 20.9764 87.7599 21.1294 87.7064 21.3184H87.7599C87.1181 24.5497 86.7705 26.4849 86.717 27.124V27.178H86.7705C86.7616 27.088 86.8062 26.9125 86.9042 26.6514C86.8686 26.6514 86.8463 26.6334 86.8374 26.5974C86.9621 26.5974 87.1137 26.1159 87.2919 25.1528C87.3722 25.0358 87.4256 24.9773 87.4524 24.9773C87.5682 24.9773 87.6306 25.0538 87.6395 25.2068C87.2652 27.169 86.9399 28.7351 86.6635 29.9052L86.0485 32.0519C85.9594 32.709 85.7277 33.3436 85.3533 33.9556C84.9879 35.1707 84.618 36.0033 84.2436 36.4533L84.1366 36.3858C84.2079 35.9178 84.5021 35.1842 85.0191 34.1851H84.9656L85.0993 33.7261V33.6721H85.0458C85.0547 33.7981 84.7739 34.0861 84.2035 34.5362C84.1233 34.9952 83.8336 35.6523 83.3344 36.5073C82.9512 37.9295 82.5679 38.762 82.1846 39.0051C81.9262 39.6171 81.4404 40.4677 80.7273 41.5568C80.4599 42.0878 80.2237 42.4344 80.0187 42.5964H79.9652C79.885 42.5964 79.8405 42.5559 79.8315 42.4749C80.0009 42.3939 80.2727 41.7953 80.6471 40.6792L81.2354 39.4101C81.1908 39.4101 81.1685 39.3876 81.1685 39.3426C81.222 39.3426 81.2889 39.2301 81.3691 39.0051L81.3557 38.9376C81.2309 39.0816 80.8655 39.7026 80.2594 40.8007C79.377 42.5919 78.5837 44.0185 77.8795 45.0806C77.8261 45.0896 76.9214 46.1157 75.1655 48.1589L72.6118 50.4136L72.3177 50.4811H72.2642L72.2508 50.3596C73.0976 49.5045 73.5655 48.924 73.6547 48.6179L74.9382 46.9978C74.9382 46.9348 74.9738 46.8583 75.0451 46.7683H74.9783C73.9265 47.7944 73.4095 48.3929 73.4274 48.5639C72.3667 49.347 71.4397 49.9276 70.6464 50.3056C70.5484 50.3056 69.9869 50.6521 68.9618 51.3452C67.7942 51.8492 67.1302 52.1778 66.9697 52.3308H66.9162V52.2768C66.9608 52.0428 67.1926 51.8492 67.6115 51.6962C68.0037 51.4082 68.1953 51.2327 68.1864 51.1697L68.8281 50.7106V50.6566L67.1435 50.9942C67.0633 50.9582 67.0054 50.9402 66.9697 50.9402C66.6578 50.9402 66.2121 51.1157 65.6327 51.4667C65.0712 51.6197 64.7949 51.7322 64.8038 51.8042C64.7681 51.8042 64.7459 51.7862 64.7369 51.7502L64.4027 51.8042C64.2334 51.8042 64.0595 51.7682 63.8813 51.6962V51.7502C63.605 51.6602 63.342 51.4847 63.0925 51.2237C63.0479 51.2237 62.9855 51.2057 62.9053 51.1697C62.8429 51.2057 62.7716 51.2237 62.6914 51.2237L62.678 51.1697L62.571 51.2237C61.956 51.0257 61.4881 50.7196 61.1672 50.3056C61.0602 50.3056 60.8775 49.9771 60.619 49.32C60.4408 49.203 60.0753 48.717 59.5227 47.8619C59.3444 47.5919 59.2508 47.3803 59.2419 47.2273H59.1884V47.2948C59.3756 48.0419 59.5673 48.6945 59.7634 49.2525C59.7277 49.3335 59.7099 49.392 59.7099 49.428H59.6029C59.3266 49.131 59.0191 48.6494 58.6804 47.9834C58.6715 47.9294 58.4442 47.5243 57.9985 46.7683C57.945 46.4172 57.8916 46.2417 57.8381 46.2417C57.8292 46.2057 57.8425 46.1877 57.8782 46.1877C57.7445 45.8547 57.5751 45.1571 57.3701 44.095C57.3612 43.618 57.3523 43.348 57.3434 43.285C57.0582 42.6729 56.9111 42.2859 56.9022 42.1239H56.8487C56.7952 42.9699 56.7462 43.492 56.7017 43.69C56.7017 43.735 56.7195 43.7575 56.7551 43.7575L56.7418 44.1625L56.822 45.0266C56.822 45.0626 56.8398 45.0806 56.8755 45.0806L56.8354 45.2021L56.8621 45.5532L56.9289 45.6612C56.8844 45.6612 56.8665 45.6837 56.8755 45.7287H56.9289C56.9379 45.7647 56.9245 45.7827 56.8888 45.7827L56.9557 46.0662L57.0092 46.6468C57.0181 46.6918 57.0404 46.7143 57.076 46.7143C57.076 46.7503 57.0582 46.7683 57.0225 46.7683L57.1027 47.0518L57.1161 47.1733H57.0626C56.9913 47.1733 56.822 46.7683 56.5546 45.9582C56.5902 45.9582 56.6036 45.9402 56.5947 45.9042H56.5412L56.5947 45.7827C56.3629 44.9366 56.2382 44.3966 56.2203 44.1625L56.1936 43.8115C56.0777 43.8115 56.0153 43.771 56.0064 43.69C56.0866 43.285 56.1178 42.9789 56.1 42.7719L55.993 41.5568C56.0644 41.0618 56.1089 40.2112 56.1267 39.0051C56.1624 39.0051 56.207 38.8701 56.2604 38.6C56.207 38.528 56.1758 38.447 56.1669 38.357C56.4521 38.222 56.7507 37.4119 57.0626 35.9268C57.2231 35.4857 57.4994 34.9457 57.8916 34.3066C58.0788 33.9556 58.1991 33.7801 58.2526 33.7801H58.4264C58.4353 33.8881 58.2927 34.2391 57.9985 34.8332C57.9361 35.0402 57.9049 35.1527 57.9049 35.1707C58.2258 34.7207 58.6537 33.6811 59.1884 32.0519C59.5004 31.3139 59.8926 30.5758 60.365 29.8377C60.4185 29.5497 60.5254 29.2212 60.6859 28.8521C60.6502 28.8521 60.6279 28.8341 60.619 28.7981C60.6814 28.7981 60.9043 28.2581 61.2875 27.178C61.2875 27.133 61.3053 27.0745 61.341 27.0025H61.2742C61.2118 27.1015 61.1806 27.178 61.1806 27.232L61.0602 27.178C61.0691 27.259 60.9533 27.4525 60.7126 27.7585C60.7215 27.8755 60.4987 28.2221 60.0441 28.7981L59.2954 30.5938C59.3132 30.8368 59.1974 31.1068 58.9478 31.4039C58.8765 31.3679 58.823 31.3499 58.7874 31.3499L58.774 31.1203C58.8809 30.9763 59.1573 30.2203 59.6029 28.8521C59.5673 28.8521 59.545 28.8341 59.5361 28.7981C59.5895 28.7891 59.7099 28.4246 59.8971 27.7045C60.1823 27.1105 60.4675 26.6244 60.7527 26.2464C61.2786 25.0313 61.6752 24.2977 61.9426 24.0457C61.9337 23.9557 62.3215 23.3571 63.1058 22.25C63.2306 21.692 63.81 20.8594 64.8439 19.7523C64.9152 19.7973 64.9732 19.8198 65.0177 19.8198L65.0311 19.9278C64.7369 20.2609 64.4651 20.6479 64.2155 21.0889C64.2512 21.0889 64.269 21.1069 64.269 21.1429C64.1799 21.1609 64.0996 21.3365 64.0283 21.6695C63.9392 21.7145 63.7654 22.142 63.5069 22.9521H63.4534V23.0061H63.5738C64.1086 21.539 65.138 20.2068 66.6622 19.0097C66.9653 18.4607 67.4555 17.9386 68.1329 17.4436C69.1134 16.1655 69.7863 15.5264 70.1517 15.5264L70.2721 15.5804C70.3345 15.5444 70.3879 15.5264 70.4325 15.5264L70.4459 15.5804C70.4637 15.8324 70.2944 16.0845 69.9378 16.3365C69.9289 16.3005 69.9066 16.2825 69.871 16.2825C69.8799 16.3455 69.7908 16.44 69.6036 16.566C69.4966 16.728 69.3674 16.9981 69.2159 17.3761C68.7702 17.7991 68.534 18.1097 68.5073 18.3077C68.4716 18.3077 68.4493 18.2897 68.4404 18.2537C68.3602 18.2537 68.2889 18.3482 68.2265 18.5372C68.1641 18.5372 67.9457 18.8477 67.5714 19.4688H67.6248C68.4894 18.8207 68.9173 18.4742 68.9083 18.4292L68.8549 18.3077C68.8905 18.3077 68.9039 18.2897 68.895 18.2537H68.8415C68.8326 18.1637 69.2604 17.8171 70.125 17.2141C70.2854 17.2141 70.6553 16.827 71.2347 16.053C71.511 15.7379 71.6447 15.5444 71.6358 15.4724L71.7561 15.5264C72.0414 15.2564 72.1795 15.0809 72.1706 14.9999L71.8898 14.9459C71.5244 15.0629 71.2971 15.1214 71.208 15.1214L71.0876 14.9459L71.0743 14.8919C71.7873 14.2528 73.053 13.6137 74.8713 12.9747C75.4418 13.0197 75.7493 13.0602 75.7938 13.0962C76.9704 12.8622 77.7815 12.7452 78.2272 12.7452H78.4544C78.7842 12.7452 79.0383 12.7857 79.2165 12.8667V12.7992C79.6889 13.0872 80.353 13.2627 81.2086 13.3257C81.8771 13.4517 82.305 13.5687 82.4921 13.6768V13.6092C81.9663 12.9522 81.6097 12.6057 81.4226 12.5696L81.4092 12.3401ZM78.8956 18.9422C78.9046 19.0772 78.8912 19.1763 78.8555 19.2393L78.7352 19.1853H78.3876C78.3519 19.1853 78.3386 19.2033 78.3475 19.2393L78.2138 19.1853C77.6255 19.4733 76.9748 20.1078 76.2618 21.0889C75.2546 21.449 74.7644 21.7955 74.7911 22.1285L74.2162 22.7766C74.2162 22.7316 74.1984 22.7091 74.1627 22.7091C74.1716 22.7991 73.9265 23.0511 73.4274 23.4651L73.3204 23.6407V23.6947H73.3739C73.7661 23.3166 74.1315 23.0871 74.4702 23.0061C74.6663 23.0511 74.7688 23.1096 74.7777 23.1816L74.7911 23.2896L73.8285 24.0997C73.8374 24.1807 73.6769 24.3562 73.3472 24.6263C73.3561 24.6623 73.258 24.8378 73.053 25.1528C72.7411 25.4588 72.5851 25.6298 72.5851 25.6658C72.4425 25.8099 72.1884 26.1969 71.823 26.827L71.6091 27.0025C71.5734 27.0025 71.5511 26.9845 71.5422 26.9485L71.4353 27.0025H71.3818L71.2882 26.7189C71.1901 26.7189 71.0609 26.989 70.9005 27.529C70.7935 27.619 70.4949 27.7315 70.0047 27.8665C69.8353 28.0826 69.6526 28.3751 69.4565 28.7441C68.9663 29.2032 68.7212 29.6667 68.7212 30.1348C69.3718 29.3337 70.0582 28.6766 70.7801 28.1636C70.8425 28.1636 70.9183 28.1231 71.0074 28.0421H71.3016L71.3149 28.2176C71.3149 28.2806 71.0832 28.4921 70.6197 28.8521C70.6108 28.8161 70.5885 28.7981 70.5528 28.7981C70.5618 28.8791 70.3969 29.1717 70.0582 29.6757C70.076 29.8287 69.8977 30.1933 69.5234 30.7693C69.3451 31.3004 68.8593 32.1329 68.066 33.267C67.7541 33.8971 67.2371 34.7657 66.5151 35.8728C66.3725 36.3048 66.1185 36.9034 65.7531 37.6684C65.7976 37.6684 65.8199 37.6864 65.8199 37.7225C65.7219 37.7225 65.6194 38.069 65.5124 38.762C65.5748 38.681 65.8645 38.0645 66.3814 36.9124C66.4082 36.9124 66.7157 36.4893 67.304 35.6433C67.4644 35.6433 67.6338 35.3732 67.812 34.8332C68.0349 34.4462 68.1685 34.2526 68.2131 34.2526L68.2265 34.3606C68.2354 34.4777 67.8833 35.2517 67.1703 36.6829C67.0722 36.7549 66.992 36.9304 66.9296 37.2094C66.8405 37.2094 66.6221 37.5559 66.2745 38.249L65.4455 41.9618C65.3742 42.4659 65.3074 43.2355 65.245 44.2705C65.2896 44.3516 65.3119 44.4101 65.3119 44.4461L65.2851 44.7431H65.3386C65.3119 44.8151 65.2985 44.8736 65.2985 44.9186C65.343 45.1886 65.4946 45.4002 65.7531 45.5532H65.8065C66.2076 45.2021 66.4706 44.9096 66.5954 44.6756C66.7201 44.6756 67.0945 44.3291 67.7184 43.636H67.6516C67.5892 43.636 67.3307 43.771 66.8761 44.041H66.8226V43.987C66.8137 43.87 67.1524 43.5415 67.8388 43.0014C68.2666 42.5784 68.6632 42.1509 69.0287 41.7188C69.1089 41.7188 69.5768 41.1428 70.4325 39.9907C70.7088 39.3516 71.101 38.807 71.6091 38.357C71.6536 38.357 71.8274 38.1275 72.1305 37.6684C72.184 37.6684 72.3845 37.3804 72.7321 36.8044L72.8525 36.7369C72.9327 36.7549 72.9772 36.7954 72.9862 36.8584C72.5494 37.5874 72.1973 38.222 71.9299 38.762C71.9745 38.762 71.9968 38.7845 71.9968 38.8296C71.9077 38.8296 71.8408 38.9061 71.7962 39.0591C71.8319 39.0591 71.8497 39.0771 71.8497 39.1131C71.7338 39.1131 71.6804 39.1716 71.6893 39.2886L71.7027 39.3426H71.7561C71.8185 39.1896 72.2553 38.4785 73.0664 37.2094C73.0307 37.2094 73.0129 37.1869 73.0129 37.1419C73.0842 37.1419 73.4541 36.5838 74.1226 35.4677C74.5148 34.6307 75.0228 33.6631 75.6468 32.565C75.7181 32.601 75.776 32.619 75.8206 32.619L75.8339 32.6865C75.8429 32.8485 75.7314 33.312 75.4997 34.0771V34.1311H75.5532C76.1771 32.808 76.7208 31.7639 77.1843 30.9988C77.7013 30.5848 78.1425 29.9682 78.5079 29.1492C78.499 29.0862 78.5926 28.8341 78.7887 28.3931C78.4589 28.5821 78.1291 28.9872 77.7993 29.6082C77.7369 29.6082 77.5141 29.8602 77.1308 30.3643C77.0506 30.3643 76.8545 30.5758 76.5425 30.9988L75.6869 31.7009H75.5666C75.4952 31.7009 75.4596 31.6604 75.4596 31.5794C75.5844 31.3814 75.9676 31.0168 76.6094 30.4858C77.0105 29.7927 77.367 29.2482 77.679 28.8521C78.0979 27.538 78.4678 26.7459 78.7887 26.4759C78.86 26.0259 79.1987 25.2923 79.8048 24.2752C79.8939 23.9782 79.9964 22.5111 80.1123 19.8738C79.6666 19.2528 79.319 18.9422 79.0695 18.9422H78.8956ZM89.0701 23.2356L89.1905 23.2896L89.1637 23.5867L89.1771 23.7622C89.293 23.7622 89.3553 23.7982 89.3643 23.8702C89.1949 25.2293 88.8562 26.4264 88.3482 27.4615C88.2323 27.7585 88.112 27.9341 87.9872 27.9881H87.8134C87.8044 27.8981 88.0094 27.1645 88.4284 25.7874C88.7225 24.2752 88.9141 23.4246 89.0033 23.2356H89.0701ZM79.27 44.5676L79.4037 44.7431L79.4171 44.8511C79.0516 45.3731 78.4589 46.0887 77.6389 46.9978C77.1932 47.5018 76.8322 47.7539 76.5559 47.7539H76.5024V47.6999C76.4935 47.6009 77.064 46.9213 78.2138 45.6612C78.4634 45.0851 78.7263 44.7971 79.0026 44.7971C79.0115 44.8331 79.0338 44.8511 79.0695 44.8511C79.0516 44.6621 79.1185 44.5676 79.27 44.5676Z" fill="url(#paint2_linear)"/>
<path d="M129.554 2.2412C129.715 2.29521 129.799 2.35372 129.808 2.41672C129.238 3.35281 128.81 4.3834 128.525 5.5085C128.329 6.27357 127.954 7.04764 127.402 7.83072C127.402 7.90272 127.308 8.17725 127.121 8.65429L127.188 8.7623V8.88381C126.76 9.8649 126.203 10.972 125.516 12.2051L124.928 13.2447C124.928 13.3257 124.554 14.1808 123.805 15.8099C123.466 16.287 123.301 16.5975 123.31 16.7415H123.377C123.921 16.0665 124.309 15.4094 124.54 14.7704C124.986 14.2663 125.414 13.6632 125.824 12.9612L126.332 12.2051H126.385C126.35 12.6102 126.176 13.0152 125.864 13.4202H125.918C125.882 13.7443 125.73 13.9963 125.463 14.1763C124.75 15.3014 124.104 16.683 123.524 18.3212C123.257 18.7172 123.079 19.1448 122.99 19.6038C122.963 19.8918 122.851 20.1438 122.655 20.3599H122.709C122.718 20.4769 122.664 20.5354 122.548 20.5354L122.629 20.6434C122.45 20.8324 122.214 21.2599 121.92 21.926C121.786 22.052 121.626 22.4211 121.439 23.0331C120.708 24.1312 120.235 25.0853 120.021 25.8954C119.736 26.3634 119.362 27.1375 118.898 28.2176C118.604 28.5326 118.364 29.1177 118.176 29.9727C118.132 29.9727 117.962 30.4183 117.668 31.3094C117.428 31.5164 117 32.3895 116.385 33.9286C115.832 34.9547 115.204 36.3723 114.5 38.1815L114.406 38.2355H114.286L114.205 38.006C114.304 38.006 114.397 37.754 114.486 37.2499C114.611 37.1599 114.905 36.3633 115.369 34.8602C115.529 34.7432 115.654 34.4146 115.743 33.8746C115.903 33.6946 116.189 32.9745 116.599 31.7144C116.839 31.1563 117.102 30.4003 117.388 29.4462C116.933 30.0132 116.661 30.6523 116.572 31.3634C116.144 31.9934 115.752 32.808 115.395 33.8071C115.164 34.1941 114.892 34.8152 114.58 35.6703C114.179 36.1833 113.827 36.9799 113.524 38.06C113.203 38.501 112.935 39.1806 112.721 40.0987C112.329 41.2148 111.763 42.4794 111.023 43.8925C110.854 43.9465 110.511 44.6441 109.994 45.9852C110.012 46.2192 109.905 46.3362 109.673 46.3362C109.664 46.2552 109.789 45.8682 110.047 45.1751C110.431 44.3831 110.841 43.1589 111.277 41.5028H111.157C110.658 42.8619 110.279 43.5775 110.021 43.6495C109.923 43.7755 109.789 43.9915 109.62 44.2976C109.655 44.2976 109.673 44.3156 109.673 44.3516C109.192 44.9996 108.938 45.6207 108.911 46.2147C108.474 46.8898 108.278 47.5108 108.323 48.0779C108.349 48.3119 108.02 48.4874 107.333 48.6044C107.298 48.6044 107.275 48.5864 107.267 48.5504C106.536 48.5504 106.192 48.762 106.237 49.185C106.237 49.23 106.224 49.2885 106.197 49.3605H106.25C106.117 49.7926 105.979 50.0086 105.836 50.0086C105.711 50.0086 105.533 49.8916 105.301 49.6575H105.181C105.19 49.8016 105.087 49.9546 104.873 50.1166L104.726 50.5216H104.78L104.74 50.6431V50.6971C104.757 50.8862 104.793 51.0842 104.847 51.2912C104.882 51.6422 104.731 52.1058 104.392 52.6818L104.472 52.8033C104.472 52.8213 104.437 52.8798 104.365 52.9788L104.392 53.2624C104.401 53.3704 104.45 53.4874 104.539 53.6134H104.472L104.552 53.7349L104.579 53.9644L104.285 54.0184H104.232C104.214 53.8654 103.92 53.1499 103.349 51.8717H103.403L103.269 51.5207H103.322C103.162 51.0167 102.895 50.3371 102.52 49.482C102.511 49.401 102.467 49.3605 102.387 49.3605L102.199 49.9411H102.253C102.28 50.1751 102.217 50.2921 102.066 50.2921C101.968 50.4541 101.901 50.8412 101.865 51.4532H101.919L101.878 51.5747C101.878 51.6107 101.896 51.6287 101.932 51.6287C101.905 52.0788 101.896 52.3533 101.905 52.4523H101.611C101.468 52.4523 101.165 51.3632 100.702 49.185L100.314 48.1994H100.381C100.372 48.0914 100.065 47.4703 99.4585 46.3362C99.4229 45.8772 99.2223 45.3146 98.8569 44.6486C98.5182 42.4254 98.2463 41.1023 98.0413 40.6792L98.1082 40.5712C98.0993 40.5262 98.0725 40.4677 98.0279 40.3957L98.0547 40.0447H97.9878L98.0547 39.9232C97.921 39.3021 97.8452 38.9331 97.8274 38.8161L97.9477 38.762C98.1884 38.762 98.3622 38.9961 98.4691 39.4641C98.4691 39.5001 98.4959 39.5586 98.5494 39.6396H98.4825C98.5717 39.7656 98.6207 39.8601 98.6296 39.9232H98.6831C98.6742 39.8511 98.6875 39.8151 98.7232 39.8151L98.4959 38.9916L98.5093 38.006C98.4647 37.934 98.4424 37.8755 98.4424 37.8305H98.4959L98.429 37.709L98.3354 36.5478C98.3265 36.4578 98.2998 36.3813 98.2552 36.3183C98.2552 36.2733 98.2731 36.2508 98.3087 36.2508C98.2018 35.9268 98.1438 35.7153 98.1349 35.6163C98.1527 34.9232 98.1527 34.4777 98.1349 34.2796C98.0279 33.9286 97.9656 33.6946 97.9477 33.5776H97.8942C97.9121 33.7396 97.8764 33.9916 97.7873 34.3336H97.8408L97.8007 34.4552L97.8541 35.0357C97.7917 35.6568 97.7204 35.9673 97.6402 35.9673H97.5867C97.3817 35.7963 97.2748 35.6613 97.2659 35.5623C97.2659 35.4902 97.2035 35.0222 97.0787 34.1581H97.1455C97.1455 34.1221 97.1232 34.1041 97.0787 34.1041L97.1188 33.8071L97.0787 33.348C96.9182 32.817 96.74 32.331 96.5439 31.8899H96.6107C96.5573 31.8539 96.5172 31.6964 96.4904 31.4174H96.4369C96.4102 31.6694 96.2319 32.0204 95.9021 32.4705C95.8308 32.7135 95.5545 33.0825 95.0732 33.5776C94.7701 34.4687 94.4136 35.0132 94.0036 35.2112C93.3886 36.1833 92.9608 36.7864 92.7201 37.0204C92.5151 37.5604 91.9803 38.3165 91.1157 39.2886C90.9909 39.4056 90.777 39.7926 90.474 40.4497H90.5943C90.5854 40.3597 91.04 39.8556 91.958 38.9376C92.0382 38.9736 92.1185 38.9916 92.1987 38.9916V39.1131C91.548 40.2202 91.0756 40.9357 90.7815 41.2598C90.6299 41.6648 90.5007 41.9573 90.3937 42.1374C90.4294 42.1374 90.4472 42.1599 90.4472 42.2049C90.3492 42.2049 90.055 42.7269 89.5648 43.771L88.8428 44.8781L88.9097 44.9996L88.0941 46.1067C87.3276 47.2858 86.8596 47.9249 86.6903 48.0239L86.5566 47.8484L87.439 45.4587H87.332C87.341 45.5397 87.1181 45.8142 86.6635 46.2822C86.4496 46.7413 86.258 47.0113 86.0886 47.0923C85.946 47.1913 85.8792 47.2858 85.8881 47.3758C85.4781 47.9609 85.1305 48.3884 84.8452 48.6585C84.8542 48.7485 84.5244 49.14 83.8559 49.8331C83.1161 50.7241 82.5456 51.4982 82.1445 52.1553C81.7791 52.7043 81.5741 52.9788 81.5295 52.9788C81.4849 52.9788 81.4627 52.9563 81.4627 52.9113L81.3557 52.9788H81.1819L81.1685 52.8573C81.3111 52.7043 81.6899 51.9843 82.305 50.6971C82.608 50.3461 82.7863 49.9771 82.8398 49.59C82.3763 50.1661 81.9529 50.5576 81.5696 50.7646C80.9635 51.4217 80.3396 52.2183 79.6978 53.1544C79.5641 53.1634 78.9179 53.9014 77.7592 55.3686C77.6433 55.4856 77.3225 56.0076 76.7966 56.9347C76.7164 56.8987 76.654 56.8807 76.6094 56.8807V56.7592C76.7164 56.6512 76.7966 56.4577 76.8501 56.1786C77.0372 55.8636 77.1754 55.7061 77.2645 55.7061L77.1977 55.5981L77.2378 55.4766H77.1843C77.3715 54.7385 77.6612 54.0994 78.0533 53.5594L77.9865 53.4379L78.3341 52.7358C78.6015 51.7457 79.0115 50.7556 79.5641 49.7656C79.6354 49.7656 79.7335 49.536 79.8583 49.077C80.4198 48.1499 80.8165 47.3893 81.0482 46.7953H80.9947C80.4421 47.5243 80.1702 47.9339 80.1792 48.0239C79.6354 48.843 79.3235 49.2525 79.2433 49.2525C79.172 49.2075 79.114 49.185 79.0695 49.185L79.0427 48.9555C79.3725 48.3704 79.6666 47.7494 79.9251 47.0923C80.1212 46.8403 80.5223 46.1607 81.1284 45.0536C81.3156 44.8286 81.5607 44.3246 81.8638 43.5415C82.5233 42.2994 82.9957 41.5028 83.281 41.1518C83.3523 41.1248 83.4058 40.8727 83.4414 40.3957C83.8871 39.5856 84.2079 38.9061 84.404 38.357H84.3506C83.4503 39.7431 82.9556 40.4587 82.8665 40.5037H82.6392V40.4497C82.6303 40.3237 83.0359 39.5091 83.8559 38.006C84.3104 37.5289 84.609 36.9439 84.7517 36.2508C85.4915 35.4047 85.8435 34.8242 85.8079 34.5092C86.6546 33.5101 87.0869 32.7135 87.1048 32.1194C87.3543 31.6874 87.7109 31.1834 88.1743 30.6073C88.2635 30.6433 88.3259 30.6613 88.3615 30.6613C88.1922 31.2824 88.0273 31.5929 87.8668 31.5929L87.8802 31.7684C87.8891 31.9484 87.7287 32.34 87.3989 32.943L87.4123 33.051C87.7064 32.7 88.0362 32.0609 88.4016 31.1338C88.9008 30.2428 89.137 29.6217 89.1102 29.2707C89.4668 28.7396 89.7743 28.0961 90.0328 27.34C90.6834 26.4039 91.0043 25.8639 90.9954 25.7199L91.2494 24.7883C90.3937 25.7694 89.8723 26.6019 89.6851 27.286H89.4579C89.3776 27.286 89.3331 27.2455 89.3242 27.1645C89.4311 26.7234 89.7297 25.9494 90.2199 24.8423C90.9152 23.4921 91.2539 22.7361 91.236 22.5741C91.2182 22.25 91.5525 21.665 92.2388 20.8189C92.5864 19.7748 92.8761 19.1357 93.1078 18.9017C93.4465 18.3257 93.6337 17.7991 93.6694 17.3221C93.7763 17.3221 93.8253 17.2636 93.8164 17.1466C93.8788 16.9576 93.9056 16.8225 93.8967 16.7415C93.861 16.6695 93.8387 16.611 93.8298 16.566H93.8833L93.8298 16.458L93.7897 16.107C93.7362 15.4679 94.0259 15.0584 94.6587 14.8784C94.8905 14.8784 95.1178 14.3563 95.3406 13.3122L95.6214 13.2447H95.6748C96.067 13.8028 96.2854 14.3293 96.33 14.8244H96.4503C96.3968 14.1853 96.6598 13.2312 97.2391 11.9621L97.2258 11.7326C97.1366 11.6066 97.0876 11.4896 97.0787 11.3815L97.0519 11.152C97.0519 10.846 97.2302 10.693 97.5867 10.693C98.2998 10.891 98.6697 11.161 98.6964 11.5031C98.6697 11.7011 98.6385 11.8001 98.6029 11.8001C98.6563 11.9351 98.692 12.1466 98.7098 12.4346C98.9772 12.0116 99.1733 11.8001 99.2981 11.8001C99.3159 11.8721 99.356 11.9081 99.4184 11.9081V12.4886V12.5561C99.7304 13.2942 100.011 13.6632 100.261 13.6632C100.27 13.7263 100.466 14.1898 100.849 15.0539C101.001 15.4409 101.112 16.044 101.183 16.863C101.344 16.683 101.517 16.2555 101.705 15.5804L101.812 15.5264H101.919C102.034 15.5264 102.115 15.7379 102.159 16.161V16.2825L102.119 16.3905H102.173C102.075 16.6245 102.048 16.9936 102.092 17.4976L102.173 18.3212C102.173 18.4022 102.199 18.4787 102.253 18.5507C102.235 18.9737 102.195 19.4418 102.132 19.9548L102.146 20.0088C102.297 20.8639 102.373 21.3094 102.373 21.3455H102.32C102.364 21.4085 102.422 21.6605 102.493 22.1015L102.453 22.223C102.498 22.295 102.52 22.3535 102.52 22.3985H102.467L102.534 22.5066V22.5741C102.543 22.6101 102.529 22.6281 102.493 22.6281L102.547 22.7496L102.56 22.9251L102.52 23.0331H102.574C102.574 23.0691 102.556 23.0871 102.52 23.0871L102.641 23.7892L102.654 23.9647C102.663 24.0097 102.649 24.0277 102.614 24.0187L102.667 24.1402L102.761 25.1933C102.77 25.2743 102.761 25.3508 102.734 25.4228C102.77 25.4948 102.792 25.5713 102.801 25.6523L102.828 26.0034C102.837 26.0484 102.823 26.0664 102.788 26.0574C102.966 26.4444 103.059 26.6784 103.068 26.7594L103.122 27.34C103.131 27.475 103.162 27.574 103.215 27.637C103.251 28.6721 103.224 29.3112 103.135 29.5542C103.198 29.6172 103.256 29.8107 103.309 30.1348C103.309 30.1618 103.3 30.2428 103.282 30.3778C103.416 30.5848 103.487 30.7603 103.496 30.9043H103.55C103.612 30.3193 103.63 29.8332 103.603 29.4462L103.59 29.3247C103.59 29.2887 103.608 29.2707 103.643 29.2707L103.576 29.1492L103.523 28.6226C103.523 28.5866 103.541 28.5686 103.576 28.5686C103.576 28.5326 103.559 28.5146 103.523 28.5146C103.532 28.1636 103.55 27.9476 103.576 27.8665C103.532 27.8665 103.51 27.8485 103.51 27.8125H103.576L103.496 27.691L103.443 27.0565C103.443 27.0115 103.465 26.9935 103.51 27.0025L103.429 26.881L103.416 26.7594C103.407 26.6424 103.425 26.5839 103.469 26.5839L103.376 26.3004L103.349 25.8954C103.34 25.8504 103.358 25.8279 103.403 25.8279C103.403 25.7919 103.38 25.7739 103.336 25.7739L103.376 25.4768L103.322 24.8963L103.349 24.6128H103.403L103.536 24.6668C103.527 24.6308 103.541 24.6128 103.576 24.6128C103.674 24.7478 103.728 24.9008 103.737 25.0718L103.777 25.4768C103.786 25.6208 103.777 25.7964 103.75 26.0034C103.804 26.0844 103.835 26.1429 103.844 26.1789H103.777L103.844 26.3004L103.911 27.0565C103.92 27.1465 103.906 27.223 103.871 27.286C103.933 27.52 103.982 27.637 104.018 27.637C103.991 27.709 103.978 27.7675 103.978 27.8125C103.986 27.9296 104.035 28.0826 104.125 28.2716L104.084 28.3931L104.285 29.3247H104.218C104.414 29.7657 104.535 30.2338 104.579 30.7288L104.593 30.9043C104.601 31.0393 104.593 31.2104 104.566 31.4174C104.717 31.7864 104.798 32.0024 104.806 32.0654L104.86 32.7C104.887 33.033 104.985 33.5191 105.154 34.1581H105.101C105.145 34.2301 105.172 34.3066 105.181 34.3876C105.306 34.2976 105.845 33.4471 106.799 31.8359C107.449 30.8368 107.957 30.0177 108.323 29.3787C108.492 28.8656 108.8 28.2086 109.245 27.4075C109.575 26.8225 110.021 26.1609 110.582 25.4228C111.402 24.0367 112.04 22.7946 112.494 21.6965H112.614C112.668 21.6965 112.735 21.755 112.815 21.872C112.334 22.6461 112.111 23.2491 112.147 23.6812C112.048 24.1312 111.857 24.5587 111.572 24.9638C111.456 25.2338 111.353 25.3688 111.264 25.3688C111.309 25.4408 111.331 25.4993 111.331 25.5443L111.144 26.0034H111.197L112.762 23.2626C112.753 23.1636 112.998 22.7001 113.497 21.872C113.488 21.8 113.689 21.4715 114.099 20.8864C114.09 20.7244 114.143 20.6434 114.259 20.6434L114.246 20.5354C114.21 20.1663 114.491 19.6803 115.088 19.0772C115.231 18.5822 115.565 17.9206 116.091 17.0926L116.077 16.9711H116.184L116.371 17.0926C116.363 17.0566 116.38 17.0386 116.425 17.0386L116.438 17.0926C115.859 18.4427 115.587 19.3158 115.623 19.7118H115.676L116.639 18.2537C116.746 18.2537 116.986 17.8666 117.361 17.0926L118.39 15.7559V15.7019C118.043 16.125 117.713 16.3365 117.401 16.3365H117.347C117.321 16.1025 117.588 15.6344 118.15 14.9324C118.185 14.8424 118.493 14.3968 119.072 13.5957C119.473 12.9747 119.669 12.6057 119.66 12.4886C120.017 11.8856 120.521 11.2285 121.171 10.5175C121.795 9.42836 122.584 8.14575 123.538 6.66961C123.618 6.66961 123.81 6.41759 124.113 5.91354L124.22 5.84603C124.246 5.92704 124.291 5.96755 124.353 5.96755C124.237 6.28257 123.983 6.69211 123.591 7.19616C123.074 8.46527 122.718 9.23935 122.522 9.51837H122.588C122.624 9.51837 123.034 8.95582 123.818 7.83072C124.086 7.83072 124.344 7.6777 124.594 7.37167C124.763 7.33567 125.271 6.79112 126.118 5.73802C126.368 5.73802 126.666 5.40949 127.014 4.75243C127.406 4.51841 127.624 4.4014 127.669 4.4014C128.596 3.3033 129.229 2.60124 129.567 2.29521L129.554 2.2412ZM107.44 51.9258C107.645 51.9798 107.757 52.1148 107.775 52.3308C107.81 52.7268 107.605 53.0599 107.16 53.3299C106.839 53.3299 106.58 53.2129 106.384 52.9788L106.371 52.7358C106.469 52.4478 106.656 52.1958 106.932 51.9798L107.053 52.0473C107.195 51.9663 107.324 51.9258 107.44 51.9258Z" fill="url(#paint3_linear)"/>
<path d="M141.44 0H141.56C141.632 0.00900082 141.672 0.0495045 141.681 0.121511C141.69 0.211519 141.565 0.540049 141.306 1.1071C141.057 2.2052 140.843 3.05578 140.664 3.65883C140.664 3.69484 140.687 3.71284 140.731 3.71284C140.731 4.56792 140.477 4.99546 139.969 4.99546C139.978 5.06746 139.947 5.10797 139.876 5.11697C139.885 5.17097 140.049 5.32399 140.37 5.57601C140.379 5.63001 140.317 5.76503 140.183 5.98105L140.223 6.5616C140.152 7.6867 140.085 8.24925 140.023 8.24925H140.143C140.455 7.43018 140.745 7.02064 141.012 7.02064C141.146 7.06565 141.23 7.14665 141.266 7.26366H141.213C141.213 7.29967 141.23 7.31767 141.266 7.31767C141.284 7.47068 141.083 8.01073 140.664 8.93782C140.486 9.58588 140.406 9.99541 140.424 10.1664L140.437 10.3419C140.508 10.3419 140.647 10.1664 140.852 9.8154C140.985 9.66238 141.115 9.58588 141.239 9.58588V9.51837C141.391 9.58138 141.471 9.63988 141.48 9.69389C141.498 9.95491 141.275 10.4995 140.812 11.3275C140.393 12.6957 140.188 13.4472 140.197 13.5822C139.947 14.1763 139.822 14.5093 139.822 14.5813C139.902 14.5813 140.246 14.1133 140.852 13.1772L141.066 13.0017H141.186L141.48 13.0692C141.435 13.6903 141.039 14.6173 140.29 15.8504C140.299 15.9675 139.965 16.782 139.287 18.2942C139.207 18.7532 138.864 19.4688 138.258 20.4409C138.169 20.6659 138.089 21.0529 138.017 21.602C137.803 21.881 137.692 22.133 137.683 22.358C137.763 22.358 138.289 22.0295 139.261 21.3725C140.74 20.5984 141.516 20.2113 141.587 20.2113L141.574 20.1573C141.707 20.2294 141.805 20.2654 141.868 20.2654C141.886 20.4994 141.502 20.8864 140.718 21.4265L137.71 23.9782L137.723 24.0457L142.403 21.0754C144.096 20.0493 145.188 19.3338 145.678 18.9287C149.226 16.6875 151.236 15.5669 151.708 15.5669H151.882L151.895 15.7424C151.904 15.8504 151.668 16.0035 151.187 16.2015C150.679 16.5885 150.037 17.1511 149.261 17.8891V17.9431C149.734 17.5561 150.041 17.3626 150.184 17.3626C150.549 17.5066 150.732 17.6056 150.732 17.6596C150.99 17.5876 151.204 17.4301 151.374 17.1871C151.962 16.9891 152.786 16.5075 153.847 15.7424C154.703 15.6254 155.3 15.4094 155.639 15.0944C156.227 14.7523 156.646 14.5813 156.896 14.5813C156.985 14.6173 157.047 14.6353 157.083 14.6353V14.7569C157.109 14.9819 156.962 15.2114 156.641 15.4454L156.655 15.5669H156.762C156.824 15.5669 158.616 15.0224 162.137 13.9333C162.279 13.8973 162.529 13.8793 162.885 13.8793C162.93 13.9513 162.952 14.0098 162.952 14.0548C162.809 14.1808 162.31 14.4148 161.455 14.7569L159.663 15.918C159.601 16.026 159.151 16.332 158.313 16.836C156.967 17.6461 155.893 18.3257 155.091 18.8747C154.529 19.1898 154.123 19.4013 153.874 19.5093L153.887 19.6308L158.807 17.3626H158.928L158.941 17.4166C159.057 17.3446 159.168 17.3086 159.275 17.3086H159.556C159.636 17.3176 159.681 17.3536 159.69 17.4166L159.703 17.5381C159.48 17.6911 158.781 18.0602 157.604 18.6452C156.713 19.2933 155.416 20.0448 153.713 20.8999C153.722 20.9449 153.455 21.1789 152.911 21.602L155.625 20.3869H155.746L155.813 20.4949V20.5624C155.723 20.7154 155.05 21.1384 153.794 21.8315C153.785 21.8945 152.956 22.4751 151.307 23.5732C149.97 24.3382 149.034 24.8063 148.499 24.9773C148.312 25.1393 148.214 25.3688 148.205 25.6658C148.08 25.7829 147.893 25.8414 147.644 25.8414L147.055 25.6658H147.002C147.064 26.3589 146.81 26.7864 146.24 26.9485C146.168 26.9485 145.874 27.1015 145.357 27.4075C145.268 27.4075 144.649 27.7585 143.499 28.4606C141.832 29.5047 140.959 30.0267 140.878 30.0267L139.287 30.9583L139.301 31.0123H139.354C139.39 31.0123 139.403 30.9943 139.394 30.9583L139.528 31.0123L139.635 30.9583C140.838 31.1834 141.658 31.3769 142.095 31.5389V31.4714L142.911 31.7009L142.924 31.7684L143.031 31.7009C144.288 31.9619 144.921 32.1554 144.929 32.2815C144.894 32.3625 144.876 32.421 144.876 32.457H144.649L144.248 32.403V32.457C144.016 32.421 143.896 32.385 143.887 32.349L143.793 32.403C143.169 32.322 142.857 32.2635 142.857 32.2274C142.821 32.2274 142.804 32.2454 142.804 32.2815L142.095 32.1734H142.042L142.055 32.2274C142.305 32.2635 142.518 32.322 142.697 32.403L142.683 32.349C143.806 32.655 144.773 32.943 145.585 33.213C146.467 33.4741 148.049 34.0546 150.331 34.9547C150.509 34.9997 150.728 35.0987 150.986 35.2517L150.959 35.5353L150.839 35.4812V35.5353C150.714 35.4992 150.496 35.4047 150.184 35.2517L150.197 35.3057C149.778 35.1887 149.364 35.0537 148.954 34.9007V34.9547C148.232 34.7297 147.43 34.5362 146.547 34.3741L146.494 34.4957H146.547V34.4417C146.752 34.4957 146.895 34.5722 146.975 34.6712C147.046 34.6352 147.1 34.6172 147.135 34.6172C148.134 34.9232 149.105 35.2697 150.05 35.6568L150.117 35.7783L150.224 35.7108H150.277C150.286 35.8278 150.331 35.8863 150.411 35.8863C150.447 35.8863 150.465 35.8683 150.465 35.8323L152.149 36.5883C152.711 36.9304 153.067 37.1014 153.219 37.1014C153.727 37.3084 154.11 37.5244 154.369 37.7495L154.476 37.6819C155.501 38.33 156.628 38.9691 157.858 39.5991C157.858 39.5631 157.876 39.5451 157.912 39.5451C158.063 39.6891 158.848 40.1167 160.265 40.8277L160.345 40.9357C160.309 41.0168 160.291 41.0753 160.291 41.1113C160.202 41.1113 159.391 40.8007 157.858 40.1797C156.584 39.7206 155.835 39.4911 155.612 39.4911C155.924 39.7791 156.352 40.0672 156.896 40.3552C157.368 40.5622 157.854 40.8727 158.353 41.2868C159.538 41.9888 160.185 42.3399 160.291 42.3399C160.39 42.3399 160.688 42.4929 161.187 42.7989H161.816C162.074 42.7989 162.426 43.0329 162.872 43.501V43.555C162.872 43.573 162.836 43.6315 162.765 43.7305C163.496 44.2165 163.861 44.4866 163.861 44.5406H163.982C164.258 44.5496 164.396 44.5901 164.396 44.6621L164.516 44.5946C164.632 44.5946 164.69 44.6171 164.69 44.6621L164.971 44.5946C165.39 44.6576 165.608 44.7566 165.626 44.8916L165.666 45.3506C165.72 45.6657 165.965 45.8232 166.402 45.8232C167.427 46.6513 168.487 47.3848 169.584 48.0239C169.664 48.1589 170.092 48.4694 170.867 48.9555C170.867 48.9195 170.885 48.9015 170.921 48.9015C170.983 49.0005 171.772 49.482 173.287 50.3461C173.768 50.5531 174.013 50.6881 174.022 50.7511L174.036 50.8727C174.036 50.9447 173.996 50.9807 173.915 50.9807C173.817 50.9807 173.158 50.6521 171.937 49.9951C169.904 49.023 168.082 48.1139 166.468 47.2678C164.195 46.2417 162.729 45.7017 162.07 45.6477L162.016 45.7557C162.087 45.7557 162.48 46.0482 163.193 46.6333C163.701 46.8853 164.209 47.2318 164.717 47.6729L166.722 48.9555C166.99 49.0185 167.297 49.212 167.645 49.536V49.59C167.654 49.671 167.618 49.7115 167.538 49.7115C167.431 49.7115 166.268 49.0905 164.048 47.8484C163.897 47.8484 163.157 47.5018 161.829 46.8088C160.153 46.1067 159.2 45.7557 158.968 45.7557C159.262 46.0257 159.409 46.1832 159.409 46.2282C159.935 46.6423 160.648 47.1058 161.548 47.6189C161.602 47.7359 161.646 47.7944 161.682 47.7944C161.646 47.8664 161.633 47.9249 161.642 47.9699H161.588C161.285 47.9699 160.626 47.6999 159.61 47.1598C158.709 46.9618 158.103 46.8043 157.791 46.6873C157.533 46.4082 156.953 46.1202 156.053 45.8232C155.661 45.8232 155.331 45.5892 155.064 45.1211C155.046 44.8871 155.153 44.7701 155.385 44.7701H155.438C155.536 44.7701 155.715 44.8106 155.973 44.8916H156.026L156.013 44.8376C152.778 43.3975 150.723 42.6774 149.85 42.6774C150.055 42.9114 150.999 43.3795 152.684 44.0815C153.21 44.2705 153.566 44.4416 153.754 44.5946L153.767 44.7701C153.214 44.7701 151.311 44.248 148.058 43.204L145.478 42.6234V42.6774L145.357 42.6234H145.023C144.203 42.5244 143.784 42.3894 143.766 42.2184L143.753 41.9888C143.762 41.9078 143.797 41.8673 143.86 41.8673C143.878 41.8673 144.132 41.8853 144.622 41.9213C145.077 41.6963 145.504 41.5838 145.905 41.5838C146.253 41.6198 146.427 41.6558 146.427 41.6918L146.547 41.6378C146.583 41.6378 146.601 41.6558 146.601 41.6918C146.645 41.6918 146.668 41.6738 146.668 41.6378C147.095 41.7188 147.381 41.7593 147.523 41.7593H147.577V41.6918C147.559 41.6918 147.149 41.5748 146.347 41.3408V41.4083C145.152 41.1023 143.245 40.7512 140.624 40.3552L140.638 40.4227C140.54 40.3777 140.361 40.3372 140.103 40.3012V40.3552C139.515 40.2382 137.812 40.0852 134.996 39.8961V39.8421L134.889 39.8961H134.715L134.595 39.8421V39.8961L134.488 39.8421C131.921 39.7251 130.459 39.6666 130.102 39.6666C129.398 40.9447 128.716 42.6099 128.057 44.6621C127.299 46.0932 126.88 46.9798 126.8 47.3218C126.417 48.681 126.136 49.401 125.958 49.482C125.583 49.707 125.405 49.9186 125.423 50.1166C125.432 50.2336 125.401 50.2921 125.329 50.2921H125.209C125.138 50.2921 125.097 50.2516 125.089 50.1706C125.106 49.4235 125.164 49.0005 125.262 48.9015L125.222 48.5504L125.129 47.9699H125.008C124.794 48.789 124.523 49.446 124.193 49.9411H124.246C124.032 50.3551 123.912 50.6656 123.885 50.8727C123.609 51.2867 123.244 51.9843 122.789 52.9653C122.504 53.4334 122.12 54.302 121.639 55.5711L121.425 55.7466C121.3 55.7106 121.22 55.6341 121.185 55.5171L122.281 51.7367V51.6827C122.245 51.6827 122.223 51.6647 122.214 51.6287C122.588 51.0977 122.762 50.6701 122.735 50.3461C122.7 50.3461 122.682 50.3281 122.682 50.2921H122.735C122.691 50.2201 122.669 50.1616 122.669 50.1166H122.615C122.419 50.1166 122.187 50.5441 121.92 51.3992C121.528 51.7322 121.287 52.1193 121.198 52.5603C120.984 53.0103 120.708 53.3389 120.369 53.5459C120.369 53.5999 120.231 53.7709 119.955 54.0589L119.42 55.058C118.983 55.9851 118.733 56.4487 118.671 56.4487C118.671 56.4847 118.653 56.5027 118.618 56.5027H118.564C118.466 56.5027 118.404 56.4262 118.377 56.2731C118.368 56.2101 118.479 55.7466 118.711 54.8825L118.644 54.761C118.921 53.9869 119.054 53.5594 119.045 53.4784C119.045 53.4064 119.005 53.3704 118.925 53.3704C118.845 53.6044 118.604 53.9509 118.203 54.41C117.811 55.076 117.494 55.4271 117.254 55.4631L117.214 55.5711L117.093 55.5171H117.04C116.969 55.5261 116.933 55.5666 116.933 55.6386C116.951 55.8006 117.004 55.9941 117.093 56.2191C117.102 56.3001 116.764 56.8222 116.077 57.7853C116.042 57.9473 115.912 58.1768 115.69 58.4739C115.44 58.8339 115.057 59.5134 114.54 60.5125C114.344 60.7736 113.88 61.6241 113.149 63.0643C113.007 63.5683 112.891 63.8203 112.802 63.8203H112.748C112.695 63.8203 112.632 63.7618 112.561 63.6448C112.543 63.4378 113.069 61.9662 114.139 59.2299C114.941 57.0427 115.449 55.6116 115.663 54.9365C115.823 54.8555 115.975 54.41 116.117 53.5999C116.429 53.0509 116.63 52.4523 116.719 51.8042C116.853 51.6242 116.911 51.4487 116.893 51.2777L116.879 51.1022C116.746 51.0662 116.67 51.0482 116.652 51.0482C115.734 52.1193 115.137 53.4334 114.861 54.9905H114.513V54.9365C114.522 54.6665 115.048 53.0013 116.091 49.9411C116.518 48.3929 116.871 47.6189 117.147 47.6189C117.191 47.5559 117.209 47.4568 117.2 47.3218C117.111 46.8448 117.067 46.5973 117.067 46.5793C117.289 46.5793 117.735 46.1697 118.404 45.3506C118.591 45.3506 118.756 45.0806 118.898 44.5406C118.88 44.2705 118.907 44.1355 118.979 44.1355L118.845 43.906C119.13 43.474 119.295 43.1634 119.34 42.9744C119.268 42.7764 119.201 42.6774 119.139 42.6774H119.019C119.028 42.7584 118.858 42.9744 118.511 43.3255C118.029 44.4236 117.793 45.0041 117.802 45.0671L117.682 45.1211H117.628C117.575 45.1211 117.512 45.0626 117.441 44.9456C117.405 44.5676 118.114 43.0014 119.567 40.2472C120.262 38.789 120.636 38.033 120.69 37.979H120.81C120.882 37.988 120.922 38.0285 120.931 38.1005C120.939 38.2175 120.81 38.5055 120.543 38.9646C120.418 39.1986 120.351 39.4686 120.342 39.7746C120.378 39.7746 120.396 39.7971 120.396 39.8421C120.244 39.8421 120.186 40.0357 120.222 40.4227L120.235 40.5307H120.289C120.636 39.7296 121.046 38.9736 121.519 38.2625C121.51 38.1995 121.679 37.9295 122.027 37.4524C122.009 37.2814 122.018 37.1644 122.054 37.1014L121.933 37.0474V37.1014L121.826 37.0474C121.746 37.0834 121.688 37.1014 121.653 37.1014C121.653 37.0384 121.528 36.9439 121.278 36.8179L121.171 36.8719C120.877 36.7009 120.44 36.5073 119.861 36.2913C119.807 36.2283 119.781 36.1518 119.781 36.0618C119.807 35.8548 119.816 35.7378 119.807 35.7108C119.763 35.7108 119.741 35.6928 119.741 35.6568L119.46 35.7108H119.166C118.872 35.7108 118.698 35.6343 118.644 35.4812C118.609 35.1032 118.854 34.8332 119.38 34.6712C119.442 34.5722 119.469 34.5137 119.46 34.4957V34.3741C119.451 34.2751 119.273 34.1806 118.925 34.0906L118.805 34.1446H117.655L117.254 34.1986V34.1446C117.218 34.1446 117.2 34.1626 117.2 34.1986L116.906 34.1446C115.97 34.1806 115.453 34.1986 115.355 34.1986L115.369 34.2661L115.235 34.1986C115.217 34.1986 115.012 34.2391 114.62 34.3201V34.2661C114.433 34.3381 114.304 34.3741 114.232 34.3741L114.099 34.3201C114.036 34.4011 113.399 34.5182 112.187 34.6712L112.16 34.4957C112.142 34.2886 113.305 33.9601 115.649 33.5101C115.765 33.5101 115.899 33.4876 116.051 33.4426V33.5101C116.273 33.4291 116.652 33.3526 117.187 33.2805V33.3345C117.428 33.2715 118.052 33.195 119.059 33.105V32.9835C118.586 32.9475 118.194 32.889 117.882 32.808L117.869 32.5785C117.86 32.4345 118.154 32.2995 118.751 32.1734L118.872 32.2274H119.273C119.317 32.2274 119.335 32.2094 119.326 32.1734L119.446 32.2274H119.513C119.585 32.2274 119.616 32.1914 119.607 32.1194C119.206 32.0744 118.791 31.8989 118.364 31.5929H118.069L117.468 31.9979C117.04 31.9169 116.215 31.7054 114.994 31.3634L114.887 31.4174L114.486 31.3634V31.4174L114.366 31.3634H114.192L114.085 31.4174V31.3634C114.041 31.3994 113.813 31.4354 113.403 31.4714C113.323 31.4354 113.261 31.4174 113.216 31.4174L113.203 31.2419C113.194 31.1338 113.608 31.0168 114.446 30.8908C114.446 30.8548 114.464 30.8368 114.5 30.8368V30.8908L115.623 30.6073C115.658 30.6073 115.681 30.6253 115.69 30.6613C116.786 30.5083 117.481 30.3733 117.775 30.2563C117.909 30.2563 118.007 30.2743 118.069 30.3103C118.488 30.2743 118.854 30.2563 119.166 30.2563H119.674C119.718 30.2563 119.741 30.2383 119.741 30.2023L120.249 30.3103V30.2563L120.369 30.3103H120.422C120.467 30.3103 120.489 30.2923 120.489 30.2563C120.525 30.2563 120.543 30.2743 120.543 30.3103C120.926 30.2833 121.118 30.2473 121.118 30.2023C121.269 30.2383 121.831 30.3148 122.802 30.4318L122.842 30.3103C122.334 30.1933 121.759 29.9817 121.118 29.6757L121.131 29.7297C121.069 29.6577 120.405 29.5407 119.139 29.3787C119.139 29.3067 119.121 29.2707 119.086 29.2707C119.121 29.1177 119.17 29.0412 119.233 29.0412H119.406C119.487 29.0412 119.562 29.0592 119.634 29.0952C119.812 29.0142 119.981 28.9736 120.142 28.9736C120.427 28.9736 121.029 29.0502 121.947 29.2032C122.401 29.2842 122.847 29.3247 123.284 29.3247V29.2707C123.756 29.4237 124.121 29.5182 124.38 29.5542C124.46 29.5182 124.518 29.5002 124.554 29.5002C124.91 29.5812 125.164 29.6217 125.316 29.6217C125.61 29.6217 125.784 29.4057 125.837 28.9736C126.033 28.8026 126.354 28.0871 126.8 26.827C126.907 26.5029 127.049 26.1744 127.228 25.8414C127.727 24.8243 128.057 23.9737 128.217 23.2896C128.69 22.0115 129.122 21.0619 129.514 20.4409C129.826 20.0718 130.071 19.5318 130.249 18.8207L130.236 18.7532H130.182C130.191 18.8522 129.92 19.2393 129.367 19.9143C129.376 19.9953 129.108 20.4814 128.565 21.3725C128.574 21.4445 128.257 21.9665 127.615 22.9386C127.562 23.1366 127.344 23.5417 126.96 24.1537L126.813 24.4507H126.88L126.265 25.9629L126.145 26.0169H125.971L125.904 25.7874C126.653 23.2221 127.54 21.0709 128.565 19.3338C129.937 16.4355 130.726 14.6758 130.931 14.0548C131.457 12.3176 132.041 10.9045 132.683 9.8154C132.701 9.73439 132.79 9.65788 132.95 9.58588C133.03 9.62188 133.088 9.63988 133.124 9.63988L133.137 9.69389C133.146 9.8019 133.119 9.91891 133.057 10.0449H133.111C132.692 11.026 132.317 12.2636 131.987 13.7578C133.066 12.0116 133.828 10.639 134.274 9.63988C135.218 7.6687 136.088 5.96305 136.881 4.52291L137.001 4.46891C137.072 4.50491 137.13 4.52291 137.175 4.52291L137.188 4.59042L136.413 6.91263C136.413 6.97564 136.248 7.55619 135.918 8.65429H135.985C136.948 7.48418 137.518 6.5526 137.696 5.85954C139.755 2.48423 141.003 0.531049 141.44 0Z" fill="url(#paint4_linear)"/>
<path d="M186.015 9.04583C186.051 9.04583 186.073 9.06383 186.082 9.09983L186.363 9.04583H186.924C187.718 9.04583 188.44 9.16284 189.09 9.39686C189.108 9.65788 188.872 9.8289 188.382 9.90991C188.043 10.1799 187.865 10.3554 187.847 10.4365L187.86 10.4905C188.627 10.5445 189.014 10.603 189.023 10.666L189.13 10.612L189.358 10.666L189.652 10.612C189.768 10.702 190.151 10.7965 190.802 10.8955L191.149 10.8415C191.158 10.9765 191.8 11.1115 193.074 11.2465L193.208 11.4085L193.221 11.5301C193.23 11.6921 192.976 11.8451 192.459 11.9891L192.446 11.9351C191.501 12.4751 190.873 12.7452 190.561 12.7452C190.213 12.6642 190.004 12.6237 189.932 12.6237C189.808 12.8937 189.723 13.0287 189.678 13.0287H189.451L189.05 12.9747V13.0287L188.93 12.9747H188.876L188.943 13.0827C188.845 13.0827 188.801 13.1817 188.809 13.3797C188.961 13.3797 189.037 13.3977 189.037 13.4337L189.531 13.3257L189.665 13.3797C189.719 13.3437 189.79 13.3257 189.879 13.3257L189.999 13.3797C189.99 13.3437 190.008 13.3257 190.053 13.3257C190.062 13.3617 190.084 13.3797 190.12 13.3797L190.106 13.3257L190.628 13.4337L191.31 13.3257L191.323 13.3797L191.417 13.3257C191.506 13.3617 191.568 13.3797 191.604 13.3797L191.59 13.3257C192.205 13.3257 192.526 13.4787 192.553 13.7848L192.058 14.0683V14.0143C191.942 14.0503 191.884 14.0863 191.884 14.1223C191.849 14.1223 191.831 14.1043 191.831 14.0683C191.769 14.0683 191.564 14.1268 191.216 14.2438V14.1898C190.859 14.2798 190.597 14.3563 190.427 14.4193C190.427 14.3833 190.409 14.3653 190.374 14.3653C190.071 14.6173 189.701 14.7884 189.264 14.8784C189.014 15.1394 188.23 15.5444 186.911 16.0935L186.924 16.1475C186.942 16.2285 186.982 16.269 187.045 16.269H187.446C187.633 16.269 187.726 16.2285 187.726 16.1475C187.905 16.2195 188.007 16.296 188.034 16.377L188.047 16.4985C188.074 16.8045 187.9 16.9981 187.526 17.0791L187.513 17.0116L187.125 17.1331V17.0791C187.062 17.0791 186.563 17.3266 185.627 17.8216H185.4C185.177 17.8216 184.981 17.7631 184.812 17.6461H184.705C184.527 18.3032 184.232 18.6317 183.822 18.6317C182.922 18.9917 182.173 19.3968 181.576 19.8468C181.452 19.8468 181.242 20.0763 180.948 20.5354C180.903 20.5354 180.721 20.6119 180.4 20.7649V20.7109C180.123 20.8909 179.642 21.2779 178.956 21.872H178.729C178.648 21.872 178.604 21.8315 178.595 21.7505L178.581 21.6965C178.956 21.1204 179.352 20.5804 179.771 20.0763L180.279 19.2663C178.63 20.3104 177.405 21.1564 176.603 21.8045C176.237 22.5156 175.671 23.0376 174.905 23.3706L174.918 23.4246C174.918 23.4696 174.936 23.4921 174.972 23.4921C175.007 23.9062 174.575 24.2122 173.675 24.4102C172.89 24.9593 172.293 25.4993 171.883 26.0304C171.411 26.4174 171.121 26.8405 171.014 27.2995C170.791 27.4795 170.644 27.7495 170.573 28.1096C170.511 28.1096 170.457 28.1681 170.412 28.2851C170.43 28.3571 170.47 28.3931 170.533 28.3931H170.653C170.974 28.3931 171.932 28.0646 173.528 27.4075C174.125 27.2185 174.909 27.007 175.881 26.7729L175.894 26.8405C176.402 26.7504 176.794 26.6514 177.071 26.5434V26.6109C178.069 26.3409 179.584 25.9944 181.616 25.5713C181.607 25.5263 181.625 25.5038 181.67 25.5038L181.683 25.5713C182.307 25.3733 183.016 25.2158 183.809 25.0988L183.796 25.0448C183.68 25.0448 183.524 25.0088 183.328 24.9368C183.292 24.9368 183.279 24.9548 183.288 24.9908C183.065 24.9548 182.909 24.9368 182.82 24.9368C182.508 24.9368 182.187 24.9728 181.857 25.0448V24.9908C180.493 25.1438 179.401 25.3148 178.581 25.5038V25.4498C177.975 25.6838 177.507 25.8009 177.178 25.8009L177.097 25.6793V25.6253C177.088 25.5083 178.39 25.1033 181.001 24.4102V24.4642L183.074 23.8972V23.9512C184.206 23.6452 185.048 23.4516 185.601 23.3706V23.3166L185.708 23.3706C185.779 23.3706 185.895 23.3301 186.055 23.2491V23.3166C186.207 23.2446 186.452 23.1861 186.791 23.1411V23.1951L190.24 22.6821V22.7361L190.347 22.6821H191.376L191.711 22.6146C191.782 22.6506 192.054 22.6911 192.526 22.7361C192.678 22.7001 192.811 22.6821 192.927 22.6821C192.963 22.6821 192.981 22.7001 192.981 22.7361L193.262 22.6821H193.609L193.89 22.7361V22.6821L194.478 22.8576V22.7901C195.218 22.9521 195.722 23.0871 195.989 23.1951V23.1411C196.845 23.3751 197.589 23.7982 198.222 24.4102C198.685 25.2203 198.997 25.7199 199.158 25.9089C199.282 26.1789 199.452 26.4129 199.666 26.6109C199.817 26.962 199.915 27.403 199.96 27.9341V27.9881C199.969 28.0781 199.955 28.1546 199.92 28.2176C199.973 28.2986 200 28.3571 200 28.3931C199.955 28.3931 199.933 28.4111 199.933 28.4471H200C199.768 29.8782 199.541 30.5938 199.318 30.5938C199.327 30.6928 199.126 30.9988 198.716 31.5119C198.69 31.6919 198.369 32.1734 197.754 32.9565L197.607 33.186C197.625 33.4111 197.388 33.7576 196.898 34.2256C196.292 34.7657 195.993 35.1122 196.002 35.2652C195.53 35.8053 195.294 36.0978 195.294 36.1428C194.67 37.0249 194.064 37.754 193.475 38.33C193.484 38.393 193.395 38.4875 193.208 38.6135C192.896 38.9376 192.468 39.2661 191.925 39.5991C191.301 40.1662 190.802 40.5532 190.427 40.7602C190.427 40.7152 190.409 40.6927 190.374 40.6927C189.875 41.1338 189.424 41.4623 189.023 41.6783C189.023 41.7233 188.894 41.7998 188.636 41.9078C188.564 41.8718 188.489 41.8538 188.408 41.8538L188.395 41.7323C189.349 41.0663 190.097 40.4902 190.641 40.0042C191.996 38.564 192.745 37.736 192.887 37.5199C193.565 36.9439 194.046 36.3498 194.331 35.7378H194.278C193.208 36.5568 192.673 36.9979 192.673 37.0609C192.379 37.4569 191.987 37.745 191.497 37.925C190.819 38.537 189.995 39.1131 189.023 39.6531C188.649 40.0672 188.217 40.3777 187.726 40.5847C187.735 40.6747 187.45 40.9627 186.871 41.4488C186.389 41.7008 185.77 42.1824 185.012 42.8934L183.929 43.6495C183.76 43.8925 183.479 44.14 183.087 44.3921V44.4596L184.678 43.7035C184.839 43.6495 185.382 43.3615 186.309 42.8394C186.461 42.8394 186.537 42.8214 186.537 42.7854C186.661 42.8214 186.746 42.8979 186.791 43.0149C186.274 43.42 185.298 44.0725 183.863 44.9726C183.863 44.9366 183.845 44.9186 183.809 44.9186C183.738 45.0986 183.172 45.4272 182.111 45.9042C181.523 46.2912 180.382 46.9258 178.688 47.8079C178.68 47.7629 178.657 47.7404 178.622 47.7404C177.597 48.5054 176.705 49.0275 175.948 49.3065L175.814 49.131C175.841 49.05 176.309 48.6855 177.218 48.0374L177.646 47.6324H177.592C177.512 47.6324 177.253 47.7494 176.817 47.9834L176.228 47.8079H175.934C175.337 47.8619 174.931 48.0329 174.718 48.3209C174.495 48.69 173.96 49.095 173.113 49.536C172.89 49.7791 172.164 50.2021 170.934 50.8051L169.316 52.0203L169.209 51.9663C168.897 52.0653 168.385 52.3353 167.672 52.7763C167.003 53.1364 166.156 53.5009 165.131 53.8699C164.686 54.0589 163.518 54.4415 161.628 55.0175C161.637 55.0625 161.624 55.085 161.588 55.085C161.579 55.04 161.553 55.0175 161.508 55.0175C161.517 55.1255 161.192 55.3011 160.532 55.5441L160.412 55.4901L160.305 55.5441C160.207 55.5261 160.122 55.4316 160.051 55.2606L162.444 53.8699C162.863 53.5099 163.567 53.0464 164.556 52.4793C164.592 52.4793 164.628 52.4208 164.663 52.3038L164.944 52.3713C164.98 52.3713 164.998 52.3488 164.998 52.3038C165.078 52.3488 165.256 52.3893 165.532 52.4253C165.916 52.4253 166.085 52.2138 166.041 51.7907C166.415 51.7097 166.593 51.5567 166.575 51.3317L166.508 51.2102L166.495 51.1562C166.495 51.1202 166.513 51.1022 166.549 51.1022L166.482 50.9807V50.9267C167.427 50.5126 168.425 49.9321 169.477 49.185C169.619 49.185 169.766 49.0905 169.918 48.9015L169.904 48.8475L168.701 49.3605L168.688 49.3065C168.474 49.3065 167.774 49.6125 166.589 50.2246C166.491 50.3326 166.161 50.4496 165.599 50.5756C165.403 50.7376 164.775 50.9672 163.714 51.2642C163.643 51.3182 163.607 51.3767 163.607 51.4397L163.487 51.3857C163.291 51.3857 162.457 51.6557 160.987 52.1958L160.866 52.2498V52.1958C160.18 52.4298 159.333 52.7583 158.326 53.1814H158.085L158.072 53.0058C158.099 52.9248 158.879 52.4613 160.412 51.6152C160.581 51.5612 160.835 51.4082 161.174 51.1562C161.183 51.1922 161.21 51.2102 161.254 51.2102L162.818 50.1706V50.1166C161.579 50.7286 159.743 51.3812 157.31 52.0743C156.695 52.3083 155.318 52.7133 153.179 53.2894C152.332 53.6404 151.414 53.9689 150.424 54.275L150.277 54.0994V54.0454C150.277 54.0004 150.879 53.6719 152.082 53.0599C153.642 52.2138 154.779 51.6962 155.492 51.5072C155.483 51.4082 155.83 51.2147 156.535 50.9267V50.9807C157.06 50.9357 157.412 50.8412 157.591 50.6971C157.582 50.5801 157.528 50.4226 157.43 50.2246L158.099 49.8871C158.17 49.9231 158.228 49.9411 158.273 49.9411C158.977 49.689 159.315 49.401 159.289 49.077L159.275 48.9555C159.186 48.9555 158.58 49.1895 157.457 49.6575L156.775 49.8196C156.766 49.7836 156.744 49.7656 156.708 49.7656C156.601 49.9096 156.276 50.1031 155.732 50.3461C155.581 50.2921 155.501 50.2336 155.492 50.1706L155.478 50.0626C156.994 49.1715 158.634 48.2624 160.398 47.3353C160.398 47.3803 160.416 47.4028 160.452 47.4028C160.488 47.3128 161.165 46.9438 162.484 46.2957C162.734 46.1067 163.638 45.5307 165.198 44.5676H165.359C165.439 44.5766 165.479 44.6171 165.479 44.6891L165.492 44.7431C165.376 44.7431 164.757 45.3191 163.634 46.4713V46.5388H163.687C163.705 46.4848 164.365 46.1382 165.666 45.4992C166.789 44.9321 167.863 44.3156 168.888 43.6495C169.967 43.0644 170.818 42.5604 171.442 42.1374H171.495L171.482 41.9753C169.94 42.5874 169.129 42.8934 169.049 42.8934C169.049 42.9294 168.995 42.9699 168.888 43.0149C168.879 42.9699 168.857 42.9474 168.821 42.9474C168.83 43.0374 168.336 43.2715 167.337 43.6495H167.284C167.213 43.6495 167.173 43.609 167.164 43.528V43.474C167.181 43.348 167.556 43.1184 168.287 42.7854C168.492 42.5964 168.875 42.3624 169.436 42.0834C170.675 41.2553 171.62 40.6972 172.271 40.4092C172.717 40.1212 173.127 39.8331 173.501 39.5451C173.866 39.5451 175.364 38.582 177.993 36.6559C177.993 36.6108 178.247 36.4173 178.755 36.0753C178.907 36.1383 178.987 36.1968 178.996 36.2508C179.005 36.3318 178.635 36.7189 177.886 37.4119L175.948 39.3696H176.068C176.121 39.3696 176.719 39.0051 177.859 38.276C178.608 37.772 179.023 37.5199 179.103 37.5199C179.361 37.6369 179.598 37.6954 179.811 37.6954C180.337 37.6954 180.582 37.4659 180.547 37.0069C180.85 36.9169 181.001 36.8584 181.001 36.8314C181.367 36.9484 181.581 37.0069 181.643 37.0069H182.218L182.178 36.6559C182.24 36.5568 182.272 36.4983 182.272 36.4803H182.218L182.298 36.0753H182.245C182.218 35.8233 182.37 35.5758 182.699 35.3327C183.778 34.5317 184.754 33.9151 185.627 33.4831C186.973 32.511 187.677 31.8359 187.74 31.4579C187.758 31.3319 187.762 31.1969 187.753 31.0528C187.566 31.0168 187.468 30.9763 187.459 30.9313C185.364 31.5344 183.666 32.2094 182.365 32.9565C181.732 33.3706 180.859 33.7936 179.745 34.2256C179.049 34.6397 177.815 35.1617 176.041 35.7918L176.028 35.7378L175.921 35.7918C175.85 35.7918 175.809 35.7333 175.801 35.6163C175.792 35.5173 176.077 35.3057 176.656 34.9817C177.69 34.3156 178.564 33.6226 179.277 32.9025H179.156C177.614 33.7036 176.112 34.3786 174.651 34.9277C174.66 34.9907 173.978 35.2967 172.605 35.8458C170.234 36.5748 168.625 36.9394 167.779 36.9394C166.085 36.9394 164.793 36.3048 163.901 35.0357H163.968C163.817 34.8377 163.634 34.5317 163.42 34.1176H163.367L163.38 34.2931C163.416 34.2931 163.433 34.3111 163.433 34.3471H163.38C163.549 34.9592 163.812 35.5353 164.169 36.0753C164.249 36.0753 164.298 36.1743 164.316 36.3723V36.4803L164.035 36.5343C163.055 35.7873 162.301 34.5947 161.776 32.9565L161.735 32.4435L161.669 32.322H161.722C161.633 32.1509 161.575 31.9034 161.548 31.5794C161.441 30.3553 161.477 29.4687 161.655 28.9196C161.655 28.8746 161.637 28.8521 161.602 28.8521L161.802 27.9341H161.749L163.099 24.3562C163.83 23.0691 164.436 22.142 164.917 21.575C164.909 21.485 165.163 21.1204 165.68 20.4814C165.911 20.2654 166.232 19.8423 166.642 19.2123C166.722 19.2123 167.23 18.6902 168.166 17.6461L168.554 17.4166C168.634 17.4616 168.692 17.4841 168.728 17.4841L168.741 17.6461L167.725 18.9827C167.235 19.7838 166.869 20.4589 166.629 21.0079C166.718 21.0079 166.985 20.7379 167.431 20.1978C168.768 18.8207 170.234 17.4706 171.83 16.1475C172.873 15.2204 174.076 14.4148 175.44 13.7308C176.34 13.0917 176.959 12.7632 177.298 12.7452C177.298 12.6642 177.258 12.6237 177.178 12.6237C175.725 13.0107 174.138 13.6452 172.418 14.5273C171.634 15.3014 171.139 15.6884 170.934 15.6884C170.88 15.6164 170.849 15.5579 170.84 15.5129C170.876 15.3599 171.264 14.9954 172.003 14.4193C175.391 12.2321 177.378 11.134 177.966 11.125C179.687 10.2429 180.845 9.8019 181.443 9.8019C181.933 9.58588 182.927 9.37436 184.424 9.16734C184.46 9.16734 184.482 9.18534 184.491 9.22134C184.821 9.14034 185.275 9.09983 185.855 9.09983H185.975C186.011 9.09983 186.024 9.08183 186.015 9.04583ZM194.826 10.9495C195.37 11.0575 195.65 11.233 195.668 11.476L195.695 11.7056L195.428 11.9891C194.652 11.8451 194.26 11.6921 194.251 11.5301L194.224 11.3545C194.394 11.0845 194.594 10.9495 194.826 10.9495Z" fill="url(#paint5_linear)"/>
<defs>
<linearGradient id="paint0_linear" x1="257.273" y1="-61.1369" x2="230.902" y2="99.8681" gradientUnits="userSpaceOnUse">
<stop offset="0.587669" stop-color="#5EC4D6"/>
<stop offset="1" stop-color="#F1FC68"/>
</linearGradient>
<linearGradient id="paint1_linear" x1="257.273" y1="-61.1369" x2="230.902" y2="99.8681" gradientUnits="userSpaceOnUse">
<stop offset="0.587669" stop-color="#5EC4D6"/>
<stop offset="1" stop-color="#F1FC68"/>
</linearGradient>
<linearGradient id="paint2_linear" x1="257.273" y1="-61.1369" x2="230.902" y2="99.8681" gradientUnits="userSpaceOnUse">
<stop offset="0.587669" stop-color="#5EC4D6"/>
<stop offset="1" stop-color="#F1FC68"/>
</linearGradient>
<linearGradient id="paint3_linear" x1="257.273" y1="-61.1369" x2="230.902" y2="99.8681" gradientUnits="userSpaceOnUse">
<stop offset="0.587669" stop-color="#5EC4D6"/>
<stop offset="1" stop-color="#F1FC68"/>
</linearGradient>
<linearGradient id="paint4_linear" x1="257.273" y1="-61.1369" x2="230.902" y2="99.8681" gradientUnits="userSpaceOnUse">
<stop offset="0.587669" stop-color="#5EC4D6"/>
<stop offset="1" stop-color="#F1FC68"/>
</linearGradient>
<linearGradient id="paint5_linear" x1="257.273" y1="-61.1369" x2="230.902" y2="99.8681" gradientUnits="userSpaceOnUse">
<stop offset="0.587669" stop-color="#5EC4D6"/>
<stop offset="1" stop-color="#F1FC68"/>
</linearGradient>
</defs>
</svg>
